<svg width="32" height="32" viewBox="0 0 32 32" fill="none" xmlns="http://www.w3.org/2000/svg">
<path opacity="0.2" fill-rule="evenodd" clip-rule="evenodd" d="M0 16C0 7.16344 7.16344 0 16 0C24.8366 0 32 7.16344 32 16C32 24.8366 24.8366 32 16 32C7.16344 32 0 24.8366 0 16Z" fill="white"/>
<path d="M17.8324 17.2501H19.9157L20.749 13.9167H17.8324V12.2501C17.8324 11.3917 17.8324 10.5834 19.499 10.5834H20.749V7.78341C20.4774 7.74758 19.4515 7.66675 18.3682 7.66675C16.1057 7.66675 14.499 9.04758 14.499 11.5834V13.9167H11.999V17.2501H14.499V24.3334H17.8324V17.2501Z" fill="white"/>
</svg>
