<svg width="122" height="32" viewBox="0 0 122 32" fill="none" xmlns="http://www.w3.org/2000/svg">
<g clip-path="url(#clip0_2961_2132)">
<path d="M48.5509 13.514L45.1233 23.3118C45.0755 23.4491 44.986 23.5681 44.8674 23.6523C44.7487 23.7364 44.6067 23.7815 44.4612 23.7812H41.9537C41.8086 23.7797 41.6674 23.7339 41.5491 23.65C41.4308 23.5661 41.3409 23.4481 41.2916 23.3118L37.864 13.514C37.827 13.4084 37.8159 13.2955 37.8316 13.1847C37.8473 13.074 37.8893 12.9685 37.9541 12.8773C38.019 12.7861 38.1047 12.7117 38.2042 12.6604C38.3037 12.609 38.414 12.5823 38.526 12.5823H40.295C40.4468 12.5821 40.5945 12.6313 40.7159 12.7224C40.8372 12.8135 40.9256 12.9416 40.9677 13.0873L43.1496 20.5947H43.2671L45.44 13.0873C45.4824 12.9417 45.5709 12.8138 45.6922 12.7228C45.8135 12.6317 45.961 12.5824 46.1127 12.5823H47.8924C48.0042 12.5824 48.1144 12.6094 48.2136 12.6608C48.3129 12.7123 48.3983 12.7868 48.4628 12.878C48.5273 12.9693 48.569 13.0747 48.5843 13.1853C48.5996 13.296 48.5882 13.4087 48.5509 13.514Z" fill="url(#paint0_linear_2961_2132)"/>
<path d="M53.5769 17.3051V23.0788C53.5771 23.1709 53.5591 23.2621 53.524 23.3472C53.4888 23.4323 53.4372 23.5096 53.372 23.5747C53.3069 23.6398 53.2295 23.6914 53.1443 23.7265C53.0591 23.7617 52.9678 23.7796 52.8757 23.7794H51.169C50.983 23.7794 50.8047 23.7056 50.6732 23.5742C50.5417 23.4428 50.4678 23.2646 50.4678 23.0788V13.2811C50.4678 13.0953 50.5417 12.9171 50.6732 12.7857C50.8047 12.6543 50.983 12.5805 51.169 12.5805H52.7297C52.8219 12.5802 52.9132 12.5982 52.9984 12.6333C53.0835 12.6684 53.1609 12.72 53.2261 12.7851C53.2912 12.8503 53.3429 12.9276 53.378 13.0127C53.4132 13.0978 53.4312 13.189 53.4309 13.2811V14.556H53.568C53.8042 13.9184 54.2414 13.3749 54.8137 13.0072C55.4492 12.6108 56.1881 12.4116 56.9369 12.4347C57.6492 12.4179 58.3528 12.5942 58.9728 12.945C59.5539 13.2902 60.022 13.7968 60.32 14.4031C60.6562 15.1043 60.8209 15.8753 60.8005 16.6525V23.0824C60.8008 23.1743 60.7829 23.2653 60.7478 23.3503C60.7128 23.4353 60.6613 23.5126 60.5963 23.5777C60.5314 23.6427 60.4542 23.6944 60.3692 23.7296C60.2842 23.7648 60.1931 23.783 60.1011 23.783H58.3926C58.3006 23.783 58.2096 23.7648 58.1246 23.7296C58.0396 23.6944 57.9624 23.6427 57.8975 23.5777C57.8325 23.5126 57.781 23.4353 57.746 23.3503C57.7109 23.2653 57.693 23.1743 57.6932 23.0824V17.2144C57.6932 16.5304 57.5153 15.9969 57.1593 15.614C56.974 15.4156 56.748 15.2593 56.4968 15.1559C56.2456 15.0525 55.9751 15.0044 55.7036 15.0148C55.316 15.0085 54.9337 15.1042 54.5948 15.2922C54.2745 15.474 54.0155 15.747 53.8509 16.0764C53.6647 16.4589 53.5708 16.8797 53.5769 17.3051Z" fill="url(#paint1_linear_2961_2132)"/>
<path d="M71.9679 13.1424C71.8198 13.139 71.6764 13.0896 71.5577 13.001C71.439 12.9124 71.351 12.789 71.3058 12.648C71.1856 12.2946 70.9571 11.9879 70.6527 11.7714C70.209 11.4466 69.608 11.2836 68.8499 11.2824C68.4047 11.2699 67.9612 11.3429 67.5436 11.4976C67.2249 11.617 66.9458 11.8226 66.7374 12.0915C66.5511 12.3394 66.4522 12.6421 66.4562 12.9521C66.4431 13.1983 66.5052 13.4426 66.6342 13.6527C66.7662 13.8593 66.9417 14.0347 67.1485 14.1666C67.3869 14.3188 67.6419 14.4435 67.9084 14.5382C68.2087 14.6462 68.5154 14.7353 68.8267 14.805L70.1704 15.125C70.7869 15.2593 71.3884 15.4546 71.9661 15.7083C72.4835 15.9299 72.9637 16.2298 73.3898 16.5974C73.7838 16.9468 74.1008 17.3743 74.3206 17.8527C74.5504 18.3735 74.6657 18.9374 74.6587 19.5064C74.6754 20.3502 74.4325 21.1788 73.9629 21.8803C73.465 22.578 72.7759 23.1171 71.9785 23.4326C70.9863 23.824 69.9252 24.0114 68.8588 23.9839C67.7825 24.0077 66.712 23.8192 65.7088 23.4291C64.8667 23.0987 64.1411 22.5271 63.623 21.7861C63.2454 21.2193 63.002 20.5741 62.9111 19.8994C62.8962 19.7992 62.9028 19.697 62.9305 19.5996C62.9583 19.5022 63.0066 19.4118 63.0721 19.3345C63.1377 19.2573 63.219 19.1949 63.3106 19.1515C63.4022 19.1082 63.5021 19.0849 63.6034 19.0832H65.3208C65.475 19.0858 65.624 19.1396 65.7443 19.2362C65.8645 19.3328 65.949 19.4667 65.9846 19.6167C66.0536 19.8793 66.1746 20.1254 66.3405 20.3404C66.6064 20.6818 66.9628 20.9418 67.3692 21.0908C67.837 21.2645 68.3331 21.3495 68.8321 21.3415C69.3083 21.3524 69.7823 21.2734 70.2291 21.1086C70.5897 20.979 70.9088 20.7548 71.1528 20.4595C71.3696 20.1888 71.486 19.8514 71.482 19.5047C71.4905 19.1959 71.3854 18.8948 71.1866 18.6583C70.947 18.4016 70.6526 18.2023 70.3252 18.075C69.8768 17.8922 69.4144 17.746 68.9424 17.6376L67.314 17.2304C66.054 16.9245 65.0592 16.4456 64.3295 15.7936C63.5999 15.1416 63.2291 14.2632 63.2172 13.1584C63.1952 12.3107 63.4494 11.4788 63.9416 10.7881C64.46 10.0896 65.1571 9.54357 65.9597 9.20727C66.8816 8.81441 67.8762 8.62051 68.8784 8.63825C69.8775 8.6156 70.8696 8.80973 71.7863 9.20727C72.5662 9.54512 73.237 10.0923 73.7244 10.7881C74.0382 11.2482 74.2533 11.7683 74.3562 12.3155C74.3742 12.4162 74.3698 12.5197 74.3434 12.6186C74.3169 12.7174 74.2691 12.8093 74.2032 12.8876C74.1374 12.966 74.0551 13.0289 73.9622 13.072C73.8693 13.1151 73.7681 13.1373 73.6657 13.137L71.9679 13.1424Z" fill="url(#paint2_linear_2961_2132)"/>
<path d="M81.7652 24.0053C80.7388 24.0324 79.7242 23.7817 78.8288 23.2798C78.0097 22.803 77.3469 22.0988 76.921 21.2527C76.4561 20.314 76.2253 19.2769 76.2482 18.2298C76.2245 17.1786 76.4553 16.1373 76.921 15.1945C77.3455 14.3451 78.0084 13.6376 78.8288 13.1584C79.7341 12.6819 80.7419 12.4329 81.7652 12.4329C82.7885 12.4329 83.7964 12.6819 84.7017 13.1584C85.5208 13.6357 86.1841 14.3397 86.6113 15.1856C87.0755 16.1289 87.3056 17.17 87.2822 18.2209C87.3049 19.2678 87.0747 20.3047 86.6113 21.2438C86.1841 22.0896 85.5208 22.7937 84.7017 23.2709C83.8071 23.7759 82.7924 24.0297 81.7652 24.0053ZM81.7795 21.5994C82.2496 21.6151 82.7092 21.4582 83.0715 21.1584C83.4366 20.8335 83.7077 20.4165 83.8563 19.9511C84.2096 18.8161 84.2096 17.6008 83.8563 16.4658C83.7077 15.9999 83.4367 15.5823 83.0715 15.2567C82.7104 14.9543 82.2503 14.796 81.7795 14.8121C81.3034 14.7969 80.8379 14.9549 80.4696 15.2567C80.0989 15.5796 79.8238 15.9978 79.6741 16.4658C79.3208 17.6008 79.3208 18.8161 79.6741 19.9511C79.8238 20.4186 80.099 20.8362 80.4696 21.1584C80.8401 21.4551 81.3049 21.6091 81.7795 21.5923V21.5994Z" fill="url(#paint3_linear_2961_2132)"/>
<path d="M94.3738 24.0053C93.3395 24.0341 92.317 23.7808 91.416 23.2727C90.5969 22.7908 89.9368 22.08 89.5171 21.2278C89.0612 20.2927 88.8342 19.2627 88.855 18.2227C88.8326 17.1761 89.0621 16.1393 89.5242 15.1998C89.9493 14.3536 90.6091 13.6474 91.4249 13.1656C92.3173 12.6586 93.3315 12.4053 94.3578 12.433C95.2432 12.414 96.1213 12.5964 96.9258 12.9664C97.6325 13.2972 98.2355 13.8142 98.6699 14.4619C98.9541 14.8889 99.1557 15.3654 99.2643 15.8666C99.2843 15.9684 99.2818 16.0734 99.2569 16.1741C99.2321 16.2748 99.1854 16.3689 99.1203 16.4497C99.0552 16.5305 98.9732 16.5961 98.88 16.6419C98.7868 16.6877 98.6847 16.7126 98.5809 16.7148H96.9917C96.8431 16.7128 96.6988 16.6644 96.5791 16.5764C96.4595 16.4884 96.3703 16.3652 96.3243 16.224C96.2178 15.8981 96.0348 15.6023 95.7904 15.3616C95.6057 15.1883 95.3883 15.0537 95.1508 14.9654C94.9134 14.8772 94.6607 14.8372 94.4076 14.8477C93.9562 14.8378 93.5139 14.9751 93.1476 15.2389C92.7675 15.5297 92.478 15.9226 92.3129 16.3716C92.0998 16.9476 91.9983 17.559 92.0139 18.1729C91.9978 18.7935 92.098 19.4117 92.3094 19.9955C92.4723 20.4491 92.762 20.8465 93.144 21.1407C93.5116 21.4046 93.955 21.5425 94.4076 21.5336C94.7403 21.5387 95.0693 21.4637 95.3668 21.3149C95.6555 21.1674 95.9008 20.9474 96.0787 20.6766C96.1885 20.5112 96.2753 20.3318 96.3368 20.1431C96.3861 20.0032 96.478 19.8822 96.5996 19.7971C96.7212 19.712 96.8664 19.6669 97.0148 19.6683H98.5774C98.6821 19.6701 98.7851 19.6949 98.8791 19.741C98.9731 19.7871 99.0558 19.8534 99.1212 19.935C99.1866 20.0167 99.2332 20.1118 99.2577 20.2136C99.2821 20.3153 99.2838 20.4212 99.2625 20.5236C99.1536 21.0213 98.9571 21.4957 98.6824 21.9248C98.2608 22.5798 97.6665 23.1059 96.965 23.4452C96.157 23.8318 95.2695 24.0236 94.3738 24.0053Z" fill="url(#paint4_linear_2961_2132)"/>
<path d="M102.941 11.1367C102.501 11.1456 102.075 10.9807 101.756 10.678C101.6 10.5379 101.475 10.3666 101.39 10.1753C101.305 9.98402 101.261 9.77693 101.261 9.56749C101.261 9.35805 101.305 9.15096 101.39 8.95965C101.475 8.76834 101.6 8.59709 101.756 8.45702C102.079 8.16074 102.501 7.99634 102.939 7.99634C103.378 7.99634 103.8 8.16074 104.123 8.45702C104.278 8.59739 104.402 8.76874 104.487 8.96001C104.572 9.15128 104.616 9.35822 104.616 9.56749C104.616 9.77676 104.572 9.98371 104.487 10.175C104.402 10.3662 104.278 10.5376 104.123 10.678C103.805 10.9802 103.38 11.145 102.941 11.1367ZM101.379 23.0789V13.2812C101.379 13.0954 101.452 12.9172 101.584 12.7858C101.715 12.6544 101.894 12.5806 102.08 12.5806H103.786C103.879 12.5804 103.97 12.5983 104.055 12.6335C104.14 12.6686 104.218 12.7202 104.283 12.7853C104.348 12.8504 104.4 12.9277 104.435 13.0128C104.47 13.0979 104.488 13.1891 104.488 13.2812V23.0789C104.488 23.171 104.47 23.2622 104.435 23.3473C104.4 23.4324 104.348 23.5098 104.283 23.5749C104.218 23.64 104.14 23.6916 104.055 23.7267C103.97 23.7618 103.879 23.7798 103.786 23.7795H102.08C101.894 23.7795 101.715 23.7057 101.584 23.5743C101.452 23.443 101.379 23.2647 101.379 23.0789Z" fill="url(#paint5_linear_2961_2132)"/>
<path d="M110.162 23.9911C109.505 24.0023 108.854 23.8745 108.25 23.6159C107.709 23.3816 107.248 22.9933 106.926 22.4992C106.585 21.9448 106.416 21.302 106.44 20.6517C106.422 20.1085 106.54 19.5693 106.784 19.0834C107.003 18.6699 107.324 18.3187 107.716 18.0627C108.131 17.7966 108.586 17.5996 109.063 17.4795C109.585 17.3457 110.115 17.2529 110.651 17.2021C111.302 17.1345 111.827 17.0705 112.226 17.01C112.531 16.9801 112.827 16.8868 113.094 16.7362C113.182 16.6781 113.252 16.5984 113.3 16.505C113.347 16.4115 113.37 16.3074 113.365 16.2027V16.1583C113.376 15.9594 113.343 15.7606 113.268 15.5761C113.193 15.3916 113.078 15.226 112.931 15.0914C112.64 14.8389 112.23 14.7126 111.701 14.7126C111.228 14.6879 110.76 14.8171 110.366 15.0807C110.169 15.2236 110.002 15.4051 109.877 15.6142C109.814 15.7284 109.72 15.8225 109.606 15.8855C109.492 15.9484 109.363 15.9777 109.233 15.9698L107.727 15.8258C107.614 15.8143 107.506 15.7762 107.411 15.7145C107.316 15.6528 107.237 15.5694 107.181 15.4711C107.125 15.3729 107.093 15.2627 107.088 15.1496C107.083 15.0365 107.105 14.9239 107.152 14.8211C107.297 14.5201 107.481 14.2392 107.698 13.9854C108.149 13.4718 108.719 13.0767 109.359 12.8349C110.113 12.5512 110.913 12.4136 111.719 12.4295C112.323 12.4271 112.925 12.5006 113.511 12.6482C114.056 12.7852 114.573 13.0182 115.036 13.3363C115.477 13.6383 115.838 14.0421 116.09 14.5135C116.36 15.0449 116.493 15.6353 116.478 16.2312V23.0843C116.478 23.2701 116.404 23.4483 116.272 23.5797C116.141 23.7111 115.962 23.7849 115.776 23.7849H114.23C114.138 23.7851 114.046 23.7671 113.961 23.732C113.876 23.6969 113.799 23.6453 113.733 23.5802C113.668 23.5151 113.617 23.4378 113.582 23.3527C113.546 23.2675 113.528 23.1763 113.529 23.0843V22.2272H113.441C113.261 22.5771 113.016 22.8897 112.719 23.1483C112.4 23.4233 112.031 23.634 111.632 23.7689C111.157 23.9248 110.661 23.9999 110.162 23.9911ZM111.051 21.8467C111.471 21.8552 111.887 21.7619 112.263 21.5746C112.599 21.4047 112.883 21.1488 113.087 20.8331C113.288 20.5177 113.392 20.1505 113.386 19.7769V19.0407C113.386 18.9937 113.375 18.9473 113.353 18.9055C113.332 18.8636 113.301 18.8275 113.262 18.7999C113.224 18.7724 113.18 18.7542 113.134 18.7469C113.087 18.7396 113.04 18.7434 112.995 18.758C112.809 18.814 112.62 18.8603 112.429 18.8967C112.221 18.9376 112.011 18.9731 111.801 19.0051L111.233 19.0887C110.905 19.133 110.584 19.219 110.277 19.3448C110.028 19.4439 109.81 19.6056 109.642 19.8142C109.486 20.0261 109.407 20.2842 109.416 20.5468C109.405 20.7339 109.442 20.9206 109.523 21.0897C109.604 21.2588 109.726 21.4047 109.879 21.5141C110.225 21.7455 110.635 21.8619 111.051 21.8467Z" fill="url(#paint6_linear_2961_2132)"/>
<path d="M122 9.54697V23.0789C122 23.1708 121.982 23.2618 121.947 23.3468C121.912 23.4318 121.861 23.5091 121.796 23.5742C121.731 23.6392 121.654 23.6909 121.569 23.7261C121.484 23.7613 121.392 23.7795 121.3 23.7795H119.594C119.502 23.7797 119.41 23.7617 119.325 23.7266C119.24 23.6915 119.163 23.6399 119.097 23.5748C119.032 23.5097 118.981 23.4324 118.945 23.3472C118.91 23.2621 118.892 23.1709 118.893 23.0789V9.54697C118.893 9.45505 118.911 9.36403 118.946 9.27913C118.981 9.19423 119.033 9.11711 119.098 9.0522C119.163 8.98728 119.241 8.93584 119.326 8.90083C119.411 8.86582 119.502 8.84791 119.594 8.84815H121.3C121.486 8.84815 121.664 8.92177 121.795 9.05283C121.926 9.18388 122 9.36163 122 9.54697Z" fill="url(#paint7_linear_2961_2132)"/>
<path d="M28.0045 14.9154C28.0236 13.3662 27.7347 11.8286 27.1546 10.3917C26.5744 8.95488 25.7146 7.64741 24.6248 6.54512C23.5351 5.44283 22.2373 4.56765 20.8065 3.97033C19.3757 3.37301 17.8405 3.06543 16.2898 3.06543C14.7391 3.06543 13.2039 3.37301 11.7731 3.97033C10.3423 4.56765 9.04444 5.44283 7.95474 6.54512C6.86503 7.64741 6.00518 8.95488 5.42503 10.3917C4.84489 11.8286 4.556 13.3662 4.57511 14.9154C4.57204 14.2604 4.82954 13.6309 5.29095 13.1656C5.75236 12.7002 6.3799 12.437 7.0355 12.434C7.69111 12.4309 8.32108 12.6882 8.78683 13.1492C9.25259 13.6102 9.51597 14.2372 9.51903 14.8923C9.51903 13.0981 10.2324 11.3774 11.5021 10.1087C12.7719 8.83998 14.4941 8.12724 16.2898 8.12724C18.0855 8.12724 19.8077 8.83998 21.0774 10.1087C22.3472 11.3774 23.0606 13.0981 23.0606 14.8923V14.9367C23.0636 15.5918 23.327 16.2188 23.7927 16.6798C24.2585 17.1409 24.8885 17.3981 25.5441 17.3951C26.1997 17.392 26.8272 17.1288 27.2886 16.6635C27.75 16.1981 28.0075 15.5687 28.0045 14.9136V14.9154Z" fill="url(#paint8_linear_2961_2132)"/>
<path d="M28.0045 14.9153C28.0075 15.5704 27.75 16.1998 27.2886 16.6652C27.0602 16.8956 26.7885 17.0788 26.4892 17.2043C26.1898 17.3298 25.8687 17.3952 25.5441 17.3967C24.8885 17.3998 24.2585 17.1425 23.7927 16.6815C23.327 16.2205 23.0636 15.5935 23.0606 14.9384C23.0606 16.7326 22.3472 18.4533 21.0774 19.722C19.8077 20.9907 18.0855 21.7035 16.2898 21.7035C14.4941 21.7035 12.7719 20.9907 11.5021 19.722C10.2324 18.4533 9.51903 16.7326 9.51903 14.9384V14.8922C9.51597 14.2371 9.25259 13.6101 8.78683 13.1491C8.32108 12.6881 7.69111 12.4308 7.0355 12.4339C6.3799 12.4369 5.75236 12.7001 5.29095 13.1654C4.82954 13.6308 4.57204 14.2603 4.57511 14.9153C4.556 16.4645 4.84489 18.0022 5.42503 19.439C6.00518 20.8758 6.86503 22.1833 7.95474 23.2856C9.04444 24.3879 10.3423 25.2631 11.7731 25.8604C13.2039 26.4577 14.7391 26.7653 16.2898 26.7653C17.8405 26.7653 19.3757 26.4577 20.8065 25.8604C22.2373 25.2631 23.5351 24.3879 24.6248 23.2856C25.7146 22.1833 26.5744 20.8758 27.1546 19.439C27.7347 18.0022 28.0236 16.4645 28.0045 14.9153Z" fill="url(#paint9_linear_2961_2132)"/>
<path d="M19.0762 5.59192e-06C16.8213 -0.00180678 14.5976 0.525506 12.584 1.53948C10.5704 2.55344 8.82332 4.02573 7.4834 5.83775C8.89568 4.4686 10.6081 3.44748 12.4846 2.85555C14.3612 2.26362 16.35 2.11721 18.2931 2.42795C20.2361 2.7387 22.0799 3.49802 23.6778 4.64558C25.2756 5.79313 26.5835 7.29728 27.4976 9.03846C27.5533 9.14617 27.6305 9.24135 27.7244 9.31816C27.8183 9.39496 27.9269 9.45177 28.0436 9.48508C28.1603 9.51839 28.2825 9.5275 28.4029 9.51185C28.5232 9.49621 28.6391 9.45613 28.7433 9.39409L31.0356 8.05157C31.1388 7.99115 31.2288 7.91055 31.3001 7.81459C31.3714 7.71863 31.4227 7.60929 31.4508 7.49309C31.4788 7.37689 31.4832 7.25623 31.4635 7.13832C31.4438 7.02041 31.4006 6.90768 31.3363 6.80685C30.0418 4.72321 28.2362 3.00435 26.0907 1.81314C23.9451 0.621936 21.5307 -0.0021552 19.0762 5.59192e-06Z" fill="url(#paint10_linear_2961_2132)"/>
<path d="M1.93432 19.9369C3.05977 21.8892 4.62855 23.5501 6.51421 24.7855C8.39987 26.021 10.5497 26.7965 12.7903 27.0496C10.8968 26.512 9.15495 25.5403 7.70333 24.2119C6.2517 22.8835 5.13034 21.2349 4.42844 19.3974C3.72653 17.5599 3.46345 15.584 3.66011 13.627C3.85678 11.6701 4.50776 9.78593 5.56129 8.1245C5.62496 8.02281 5.66738 7.90931 5.686 7.79081C5.70462 7.67231 5.69904 7.55127 5.66961 7.43498C5.64018 7.31869 5.58751 7.20956 5.51476 7.11414C5.442 7.01873 5.35068 6.93901 5.24628 6.87978L2.93271 5.56749C2.8291 5.50806 2.71457 5.47008 2.59595 5.45583C2.47733 5.44157 2.35705 5.45133 2.24229 5.48452C2.12753 5.5177 2.02063 5.57364 1.92797 5.649C1.83531 5.72436 1.75878 5.81758 1.70296 5.92312C0.544089 8.08541 -0.0429216 10.5076 -0.00243333 12.96C0.038055 15.4125 0.704701 17.814 1.93432 19.9369Z" fill="url(#paint11_linear_2961_2132)"/>
<path d="M27.786 24.8019C28.9136 22.8515 29.5676 20.664 29.6956 18.4151C29.8236 16.1663 29.4219 13.9188 28.5228 11.8533C29.0015 13.76 29.0286 15.752 28.6019 17.671C28.1753 19.5901 27.3066 21.3832 26.065 22.9081C24.8234 24.433 23.2429 25.6476 21.4493 26.4554C19.6556 27.2633 17.6981 27.642 15.7323 27.5616C15.613 27.5578 15.4943 27.578 15.383 27.621C15.2717 27.664 15.1702 27.7288 15.0846 27.8118C14.9989 27.8947 14.9308 27.994 14.8843 28.1038C14.8378 28.2136 14.8139 28.3315 14.814 28.4507L14.83 31.118C14.8299 31.2381 14.8541 31.357 14.9013 31.4675C14.9484 31.578 15.0175 31.6778 15.1043 31.7609C15.1911 31.844 15.2939 31.9087 15.4064 31.951C15.5189 31.9933 15.6389 32.0124 15.759 32.0071C18.2117 31.9283 20.6038 31.2251 22.7085 29.9642C24.8132 28.7033 26.5608 26.9265 27.786 24.8019Z" fill="url(#paint12_linear_2961_2132)"/>
<path d="M5.99887 5.53365C6.75826 5.2175 7.11736 4.34612 6.80095 3.58736C6.48453 2.82861 5.61242 2.46981 4.85303 2.78596C4.09364 3.10211 3.73453 3.97349 4.05095 4.73224C4.36736 5.49099 5.23948 5.84979 5.99887 5.53365Z" fill="#6338CE"/>
<path d="M12.3509 31.1517C13.1736 31.1517 13.8405 30.4854 13.8405 29.6634C13.8405 28.8414 13.1736 28.175 12.3509 28.175C11.5282 28.175 10.8613 28.8414 10.8613 29.6634C10.8613 30.4854 11.5282 31.1517 12.3509 31.1517Z" fill="#6338CE"/>
<path d="M30.9964 12.4063C31.8191 12.4063 32.486 11.74 32.486 10.918C32.486 10.096 31.8191 9.42969 30.9964 9.42969C30.1737 9.42969 29.5068 10.096 29.5068 10.918C29.5068 11.74 30.1737 12.4063 30.9964 12.4063Z" fill="#6338CE"/>
</g>
<defs>
<linearGradient id="paint0_linear_2961_2132" x1="43.2083" y1="13.9906" x2="43.2083" y2="23.4185" gradientUnits="userSpaceOnUse">
<stop stop-color="#278EFF"/>
<stop offset="1" stop-color="#0667E1"/>
</linearGradient>
<linearGradient id="paint1_linear_2961_2132" x1="55.6342" y1="13.9906" x2="55.6342" y2="23.4184" gradientUnits="userSpaceOnUse">
<stop stop-color="#278EFF"/>
<stop offset="1" stop-color="#0667E1"/>
</linearGradient>
<linearGradient id="paint2_linear_2961_2132" x1="68.7627" y1="23.4931" x2="68.7627" y2="14.7303" gradientUnits="userSpaceOnUse">
<stop stop-color="#6338CE"/>
<stop offset="1" stop-color="#2DD4E1"/>
</linearGradient>
<linearGradient id="paint3_linear_2961_2132" x1="81.7652" y1="23.4932" x2="81.7652" y2="14.7304" gradientUnits="userSpaceOnUse">
<stop stop-color="#6338CE"/>
<stop offset="1" stop-color="#2DD4E1"/>
</linearGradient>
<linearGradient id="paint4_linear_2961_2132" x1="94.0712" y1="23.4932" x2="94.0712" y2="14.7304" gradientUnits="userSpaceOnUse">
<stop stop-color="#6338CE"/>
<stop offset="1" stop-color="#2DD4E1"/>
</linearGradient>
<linearGradient id="paint5_linear_2961_2132" x1="102.941" y1="23.4933" x2="102.941" y2="14.7304" gradientUnits="userSpaceOnUse">
<stop stop-color="#6338CE"/>
<stop offset="1" stop-color="#2DD4E1"/>
</linearGradient>
<linearGradient id="paint6_linear_2961_2132" x1="111.461" y1="23.4932" x2="111.461" y2="14.7304" gradientUnits="userSpaceOnUse">
<stop stop-color="#6338CE"/>
<stop offset="1" stop-color="#2DD4E1"/>
</linearGradient>
<linearGradient id="paint7_linear_2961_2132" x1="120.446" y1="23.4932" x2="120.446" y2="14.7303" gradientUnits="userSpaceOnUse">
<stop stop-color="#6338CE"/>
<stop offset="1" stop-color="#2DD4E1"/>
</linearGradient>
<linearGradient id="paint8_linear_2961_2132" x1="4.57511" y1="10.2993" x2="28.0045" y2="10.2993" gradientUnits="userSpaceOnUse">
<stop stop-color="#6338CE"/>
<stop offset="1" stop-color="#2DD4E1"/>
</linearGradient>
<linearGradient id="paint9_linear_2961_2132" x1="4.57511" y1="19.5332" x2="28.0045" y2="19.5332" gradientUnits="userSpaceOnUse">
<stop stop-color="#2DD4E1"/>
<stop offset="1" stop-color="#6338CE"/>
</linearGradient>
<linearGradient id="paint10_linear_2961_2132" x1="7.4834" y1="4.7584" x2="31.4645" y2="4.7584" gradientUnits="userSpaceOnUse">
<stop stop-color="#2DD4E1"/>
<stop offset="1" stop-color="#6338CE"/>
</linearGradient>
<linearGradient id="paint11_linear_2961_2132" x1="6.39417" y1="26.2796" x2="6.39417" y2="7.77064" gradientUnits="userSpaceOnUse">
<stop stop-color="#2DD4E1"/>
<stop offset="1" stop-color="#6338CE"/>
</linearGradient>
<linearGradient id="paint12_linear_2961_2132" x1="31.3275" y1="14.837" x2="17.2551" y2="31.2026" gradientUnits="userSpaceOnUse">
<stop stop-color="#2DD4E1"/>
<stop offset="1" stop-color="#6338CE"/>
</linearGradient>
<clipPath id="clip0_2961_2132">
<rect width="122" height="32" fill="white"/>
</clipPath>
</defs>
</svg>
