<svg width="174" height="46" viewBox="0 0 174 46" fill="none" xmlns="http://www.w3.org/2000/svg">
    <g clip-path="url(#clip0_3330_303)">
        <path d="M24.9984 14.9219C24.8785 13.754 24.3305 12.7139 23.5148 11.9626C22.6175 11.132 22.1281 9.94622 22.1281 8.72467V8.61989C22.1281 7.57722 22.5181 6.58567 23.1605 5.76278C23.6295 5.15967 23.9099 4.40067 23.9099 3.57522C23.9099 1.59978 22.3168 0.00255556 20.3464 0C18.3759 0.00255556 16.7828 1.59978 16.7828 3.57522C16.7828 4.40067 17.0632 5.15967 17.5322 5.76278C18.1746 6.58567 18.5646 7.57722 18.5646 8.61989V8.72467C18.5646 9.94622 18.0752 11.132 17.1779 11.9626C16.3622 12.7139 15.8142 13.754 15.6944 14.9219C15.6918 14.9423 15.6893 14.9602 15.6893 14.9807C15.6867 14.9883 15.6867 14.996 15.6867 15.0062C15.6842 15.0113 15.6842 15.0164 15.6842 15.0241C15.6791 15.0701 15.6765 15.1161 15.674 15.1647C15.6714 15.2464 15.6689 15.3257 15.6689 15.4074C15.6689 15.4611 15.6689 15.5148 15.6714 15.5684C15.6714 15.5787 15.6714 15.5889 15.674 15.6017C15.674 15.6298 15.6765 15.6579 15.6765 15.686C15.6791 15.6988 15.6791 15.709 15.6791 15.7192C15.6816 15.7729 15.6867 15.824 15.6918 15.8751C15.6918 15.8828 15.6944 15.8904 15.6944 15.8956C15.7122 16.0591 15.7377 16.2176 15.7734 16.376C15.7734 16.3811 15.7759 16.3862 15.7759 16.3913C15.7938 16.468 15.8091 16.5472 15.8295 16.6213C15.8448 16.675 15.86 16.7261 15.8753 16.7772C15.883 16.8028 15.8906 16.8283 15.9008 16.8513C15.9161 16.905 15.934 16.9561 15.9544 17.0072C15.9569 17.02 15.962 17.0302 15.9646 17.043C15.9697 17.0558 15.9722 17.066 15.9773 17.0788C15.9875 17.1018 15.9951 17.1222 16.0053 17.1452C16.0181 17.1759 16.0283 17.204 16.041 17.2321C16.0512 17.2551 16.0589 17.2807 16.0691 17.3037C16.0818 17.3318 16.0946 17.3573 16.1073 17.3854C16.1251 17.4314 16.1481 17.4774 16.171 17.5234C16.1914 17.5643 16.2118 17.6052 16.2348 17.6436C16.2551 17.6819 16.2781 17.7228 16.301 17.7611C16.3087 17.779 16.3189 17.7943 16.3291 17.8097C16.3316 17.8148 16.3367 17.8224 16.3393 17.8276C16.3393 17.8301 16.3393 17.8301 16.3393 17.8327C16.7981 18.6862 16.8159 19.7544 16.2959 20.6566C15.7759 21.5612 14.8455 22.0774 13.8769 22.1081C13.9381 22.1107 13.9967 22.1132 14.0553 22.1158C14.114 22.1183 14.1726 22.1234 14.2312 22.1311C14.3434 22.1413 14.4555 22.1567 14.5677 22.1746C14.6442 22.1873 14.7206 22.2027 14.7996 22.2206C14.8991 22.2436 15.001 22.2691 15.1004 22.2972C15.1565 22.3151 15.2126 22.3304 15.2687 22.3509C15.3247 22.3688 15.3808 22.3892 15.4369 22.4097C15.4904 22.4301 15.5465 22.4531 15.6 22.4761C15.9289 22.6116 16.2399 22.7879 16.5304 22.9974C16.9842 22.6729 17.3818 22.2614 17.7005 21.7733C17.7489 21.7018 17.7948 21.6251 17.8381 21.551C17.8814 21.4743 17.9248 21.3977 17.963 21.3184C18.2256 20.7971 18.381 20.2477 18.4346 19.6906C18.4346 19.688 18.4346 19.688 18.4346 19.6854C18.4371 19.6854 18.4397 19.688 18.4422 19.688C18.4575 19.5296 18.4652 19.3737 18.4652 19.2152C18.4652 19.1156 18.4626 19.0159 18.455 18.9188C18.4499 18.8268 18.4422 18.7348 18.4295 18.6453C18.4295 18.6326 18.4269 18.6198 18.4244 18.607C18.4142 18.5124 18.3989 18.4204 18.381 18.3284C18.3658 18.2416 18.3454 18.1572 18.325 18.0729C18.3199 18.055 18.3173 18.0397 18.3122 18.0218C18.2893 17.9323 18.2638 17.8429 18.2332 17.7534C18.2026 17.6614 18.1695 17.5669 18.1338 17.4749C18.0981 17.3829 18.0573 17.2934 18.0165 17.204C17.9732 17.1146 17.9299 17.0251 17.8814 16.9382C17.8789 16.9306 17.8738 16.9254 17.8712 16.9178C17.861 16.9024 17.8534 16.8846 17.8432 16.8667C17.8381 16.859 17.833 16.8513 17.8305 16.8437C17.5883 16.4194 17.4506 15.9288 17.4506 15.4074C17.4506 14.5641 17.8075 13.8051 18.3785 13.2761C19.6428 12.1031 20.3464 10.4497 20.3464 8.72211C20.3464 7.99889 20.2393 7.27567 20.015 6.59589C19.7907 5.91356 19.4491 5.27467 18.9826 4.72267C18.7226 4.41089 18.5646 4.00967 18.5646 3.57267C18.5646 2.58367 19.3624 1.78633 20.3464 1.78633C21.3303 1.78633 22.1281 2.58367 22.1281 3.57267C22.1281 4.00967 21.9701 4.41089 21.7101 4.72267C21.2436 5.27467 20.902 5.91356 20.6777 6.59589C20.4534 7.27567 20.3464 7.99889 20.3464 8.72211C20.3464 10.4497 21.0499 12.1031 22.3142 13.2761C22.8852 13.8051 23.2421 14.5641 23.2421 15.4074C23.2421 15.9288 23.1044 16.4194 22.8623 16.8437C22.903 16.7747 22.9438 16.7082 22.9872 16.6443C22.9974 16.6264 23.0076 16.6086 23.0203 16.5932C23.0432 16.56 23.0662 16.5268 23.0917 16.4961C23.135 16.4297 23.1834 16.3658 23.237 16.3019C23.2497 16.2814 23.265 16.2636 23.2803 16.2457C23.3211 16.1946 23.3644 16.1434 23.4103 16.0923C23.4128 16.0898 23.4179 16.0847 23.4205 16.0796C23.423 16.0744 23.4281 16.0693 23.4332 16.0642C23.4409 16.0566 23.4485 16.0489 23.4562 16.0387C23.4587 16.0361 23.4613 16.0336 23.4638 16.031C23.4868 16.0054 23.5097 15.9799 23.5352 15.9569C23.5505 15.939 23.5658 15.9211 23.5836 15.9032L23.5913 15.8956C23.6066 15.8777 23.6219 15.8623 23.6372 15.8521C23.6474 15.8393 23.6627 15.824 23.6779 15.8138C23.6907 15.7984 23.7034 15.7882 23.7162 15.7754C23.7289 15.7627 23.7417 15.7524 23.7544 15.7397C23.7748 15.7192 23.7952 15.7013 23.8156 15.686C23.8258 15.6783 23.836 15.6681 23.8462 15.6579C23.8717 15.6374 23.8997 15.6144 23.9278 15.5914C23.9405 15.5761 23.9558 15.5659 23.9711 15.5531C23.9762 15.5506 23.9787 15.548 23.9838 15.5429C24.0042 15.525 24.0246 15.5097 24.0425 15.4969C24.045 15.4943 24.0501 15.4918 24.0527 15.4892C24.0603 15.4816 24.068 15.4739 24.0781 15.4688C24.0934 15.4534 24.1113 15.4432 24.1266 15.433C24.1597 15.4049 24.1929 15.3819 24.226 15.3614C24.2464 15.3436 24.2668 15.3308 24.2872 15.318C24.2999 15.3078 24.3101 15.3001 24.3229 15.295C24.4019 15.2413 24.4834 15.1902 24.5676 15.1417C24.6287 15.1033 24.695 15.0701 24.7587 15.0369C24.8378 14.996 24.9168 14.9577 24.9984 14.9219Z" fill="white"/>
        <path d="M15.6918 14.9219C14.6238 14.4415 13.4512 14.398 12.3933 14.7303C11.2284 15.0931 9.95901 14.927 8.90371 14.3163L8.81194 14.2626C7.91213 13.7413 7.24938 12.9081 6.85938 11.937C6.57388 11.2291 6.05643 10.6056 5.34525 10.1916C3.64249 9.20515 1.46561 9.79037 0.479129 11.5C-0.504801 13.2123 0.0789294 15.3947 1.78424 16.3811C2.49797 16.7926 3.29327 16.9306 4.04778 16.8233C5.08015 16.6776 6.13035 16.8335 7.03271 17.3548L7.12448 17.4085C8.17978 18.0193 8.95979 19.0364 9.22743 20.2298C9.46959 21.3134 10.0941 22.31 11.0424 22.9975C11.0576 23.0103 11.0729 23.0205 11.0908 23.0307C11.0959 23.0358 11.1035 23.0409 11.1112 23.046C11.1137 23.0511 11.1188 23.0537 11.1265 23.0563C11.1647 23.0844 11.2029 23.1099 11.2437 23.1355C11.3125 23.1789 11.3814 23.2198 11.4502 23.2607C11.4961 23.2888 11.542 23.3144 11.5904 23.3399C11.598 23.345 11.6082 23.3501 11.621 23.3553C11.6465 23.368 11.672 23.3808 11.6949 23.3962C11.7077 23.4013 11.7153 23.4064 11.7255 23.4115C11.7739 23.437 11.8198 23.4575 11.8657 23.4779C11.8733 23.483 11.881 23.483 11.8835 23.4856C12.0339 23.552 12.1843 23.6083 12.3373 23.6568C12.3424 23.6594 12.3475 23.6594 12.3526 23.6619C12.4265 23.6849 12.503 23.7105 12.5769 23.7309C12.6304 23.7437 12.6814 23.7565 12.7349 23.7693C12.7604 23.7744 12.7859 23.782 12.8114 23.7846C12.8649 23.7974 12.9184 23.8076 12.972 23.8153C12.9847 23.8204 12.9949 23.8204 13.0077 23.8255C13.0204 23.828 13.0306 23.8306 13.0459 23.8331C13.0714 23.8357 13.0918 23.8383 13.1173 23.8408C13.1504 23.8459 13.1784 23.851 13.209 23.8536C13.2345 23.8561 13.26 23.8613 13.2855 23.8664C13.3161 23.8689 13.3441 23.8715 13.3747 23.874C13.4232 23.8817 13.4741 23.8843 13.5251 23.8868C13.571 23.8894 13.6169 23.8919 13.6602 23.8919C13.7035 23.8945 13.7494 23.8945 13.7953 23.8919C13.8157 23.8945 13.8335 23.8919 13.8514 23.8919C13.8565 23.8919 13.8667 23.8919 13.8718 23.8919C13.8743 23.8945 13.8743 23.8945 13.8769 23.8945C14.843 23.9226 15.7759 24.4414 16.2934 25.3435C16.8159 26.2481 16.7955 27.3138 16.3367 28.1699C16.3698 28.1188 16.4004 28.0677 16.4336 28.0191C16.4642 27.9706 16.4998 27.922 16.5355 27.8735C16.5993 27.7815 16.6706 27.692 16.742 27.6026C16.7904 27.5413 16.844 27.485 16.8975 27.4237C16.9663 27.3496 17.0402 27.2729 17.1142 27.2014C17.1575 27.1605 17.1983 27.1196 17.2442 27.0813C17.2875 27.0404 17.3334 27.002 17.3793 26.9637C17.4226 26.9279 17.471 26.8896 17.5169 26.8564C17.7973 26.6391 18.1057 26.4577 18.432 26.3095C18.3785 25.7524 18.223 25.2029 17.9604 24.6816C17.9222 24.6049 17.8789 24.5257 17.8381 24.4516C17.7948 24.3749 17.7489 24.3008 17.7004 24.2267C17.3818 23.7386 16.9842 23.3297 16.5304 23.0026C16.5279 23.0026 16.5279 23.0026 16.5253 23C16.5279 22.9975 16.5304 22.9975 16.5304 22.9949C16.4004 22.9029 16.2704 22.8186 16.1328 22.7394C16.0461 22.6883 15.9594 22.6423 15.8728 22.5988C15.7912 22.5579 15.7071 22.517 15.623 22.4838C15.6128 22.4762 15.6 22.4736 15.5873 22.4685C15.5006 22.4301 15.414 22.3969 15.3247 22.3663C15.2432 22.3356 15.159 22.3126 15.0749 22.287C15.0571 22.2819 15.0418 22.2768 15.024 22.2717C14.9347 22.2462 14.8455 22.2231 14.7538 22.2053C14.6594 22.1848 14.56 22.1669 14.4632 22.1516C14.3663 22.1363 14.2694 22.126 14.17 22.1184C14.0706 22.1107 13.9712 22.103 13.8718 22.103C13.8641 22.1005 13.8565 22.103 13.8488 22.1005C13.831 22.1005 13.8106 22.1005 13.7928 22.1005C13.7826 22.1005 13.7749 22.1005 13.7673 22.1005C13.2804 22.0979 12.7859 21.9727 12.3373 21.712C11.6082 21.2904 11.1316 20.6004 10.9608 19.8414C10.5784 18.1573 9.50273 16.721 8.01154 15.8573C7.38703 15.4969 6.70898 15.226 6.01055 15.0829C5.30956 14.9373 4.58563 14.9143 3.877 15.042C3.4768 15.111 3.05111 15.0497 2.67385 14.8299C1.81992 14.3367 1.52933 13.2455 2.0213 12.3894C2.51326 11.5358 3.6017 11.2419 4.45563 11.7351C4.83289 11.9524 5.10054 12.2923 5.24074 12.673C5.48544 13.3528 5.86525 13.9687 6.34192 14.5054C6.81604 15.0395 7.38703 15.4944 8.01154 15.8573C9.50273 16.721 11.2845 16.9357 12.9286 16.4246C13.6704 16.1946 14.5039 16.2636 15.233 16.6853C15.6842 16.9459 16.0385 17.3114 16.2832 17.733C16.2449 17.664 16.2067 17.595 16.1736 17.526C16.1634 17.5081 16.1532 17.4903 16.1455 17.4724C16.1277 17.4366 16.1098 17.3983 16.0971 17.3625C16.0614 17.2909 16.0308 17.2168 16.0028 17.1401C15.9926 17.1197 15.9849 17.0967 15.9747 17.0737C15.9518 17.0124 15.9289 16.9485 15.9085 16.8846C15.9085 16.882 15.9059 16.8744 15.9034 16.8693C15.9008 16.8641 15.8983 16.8565 15.8957 16.8514C15.8932 16.8411 15.8906 16.8309 15.8855 16.8181C15.8855 16.8156 15.883 16.8105 15.883 16.8079C15.8728 16.7747 15.8626 16.7415 15.8549 16.7083C15.8473 16.6853 15.8396 16.6648 15.832 16.6393L15.8294 16.629C15.8218 16.606 15.8167 16.5856 15.8142 16.5677C15.8091 16.5524 15.8014 16.5319 15.8014 16.514C15.7938 16.4961 15.7912 16.4783 15.7861 16.4604C15.781 16.4425 15.7785 16.4271 15.7734 16.4093C15.7657 16.3811 15.7606 16.3556 15.7581 16.33C15.7555 16.3173 15.753 16.3045 15.7479 16.2891C15.7428 16.2559 15.7377 16.2201 15.7326 16.1844C15.7249 16.1665 15.7249 16.146 15.7198 16.1281C15.7198 16.123 15.7198 16.1179 15.7173 16.1128C15.7122 16.0873 15.7096 16.0617 15.7071 16.0387C15.7071 16.0361 15.7071 16.0285 15.7045 16.0259C15.702 16.0157 15.6994 16.0055 15.6994 15.9927C15.6943 15.9723 15.6943 15.9518 15.6918 15.9339C15.6842 15.8905 15.6816 15.8496 15.6791 15.8113C15.674 15.7857 15.674 15.7601 15.6714 15.7371C15.6689 15.7218 15.6663 15.709 15.6689 15.6937C15.6612 15.5991 15.6587 15.502 15.6587 15.4049C15.6561 15.3334 15.6612 15.2593 15.6638 15.1877C15.6765 15.0983 15.6816 15.0114 15.6918 14.9219Z" fill="white"/>
        <path d="M11.0398 23C10.0916 23.6874 9.46709 24.6841 9.22493 25.7677C8.95728 26.9611 8.17728 27.9808 7.12197 28.5916L7.03021 28.6452C6.1304 29.1666 5.07764 29.3224 4.04528 29.1768C3.29077 29.072 2.49292 29.2074 1.78173 29.6189C0.076427 30.6053 -0.507303 32.7878 0.476626 34.5C1.4631 36.2097 3.63998 36.7949 5.34529 35.8059C6.05902 35.3944 6.57393 34.7709 6.85942 34.0604C7.24942 33.0919 7.90963 32.2562 8.81199 31.7349L8.90375 31.6812C9.95905 31.0704 11.2285 30.9018 12.3934 31.2672C13.4512 31.5994 14.6212 31.556 15.6918 31.0756C15.7097 31.0679 15.7275 31.0602 15.7454 31.05C15.753 31.0474 15.7607 31.0449 15.7683 31.0398C15.7734 31.0398 15.7785 31.0372 15.7862 31.0321C15.8295 31.0142 15.8703 30.9938 15.9136 30.9708C15.985 30.9324 16.0564 30.8941 16.1252 30.8532C16.1711 30.8277 16.2169 30.7996 16.2628 30.7714C16.2705 30.7663 16.2807 30.7612 16.2909 30.7536C16.3164 30.7382 16.3393 30.7229 16.3622 30.7101C16.3724 30.7024 16.3801 30.6973 16.3903 30.6922C16.4362 30.6641 16.4769 30.6334 16.5177 30.6028C16.5254 30.5977 16.5305 30.5926 16.533 30.59C16.6656 30.4929 16.7905 30.3907 16.9077 30.2808C16.9128 30.2782 16.9154 30.2731 16.9205 30.2706C16.9766 30.2169 17.0377 30.1632 17.0913 30.1096C17.1295 30.0687 17.1652 30.0303 17.2034 29.992C17.2213 29.9716 17.2391 29.9537 17.2544 29.9332C17.2926 29.8923 17.3283 29.8514 17.3615 29.808C17.3717 29.8003 17.3768 29.7901 17.387 29.7824C17.3946 29.7722 17.4023 29.7646 17.4124 29.7543C17.4277 29.7339 17.4405 29.716 17.4558 29.6956C17.4762 29.67 17.494 29.647 17.5119 29.6214C17.5272 29.601 17.545 29.5806 17.5603 29.5601C17.5781 29.5346 17.5934 29.5116 17.6113 29.486C17.6419 29.4477 17.6699 29.4042 17.6979 29.3608C17.7234 29.3224 17.7489 29.2841 17.7693 29.2458C17.7923 29.21 17.8152 29.1691 17.8381 29.1282C17.8509 29.1129 17.8585 29.095 17.8662 29.0797C17.8687 29.0746 17.8738 29.0669 17.8764 29.0618C17.8789 29.0592 17.8789 29.0592 17.8815 29.0592C18.3887 28.2338 19.3038 27.6843 20.3413 27.6843C21.3839 27.6843 22.2939 28.2338 22.8037 29.0592C22.7756 29.0056 22.7476 28.9519 22.7221 28.9008C22.6941 28.8497 22.6711 28.796 22.6482 28.7398C22.5997 28.6376 22.559 28.5328 22.5182 28.4254C22.4901 28.3539 22.4672 28.2798 22.4417 28.2006C22.4111 28.1034 22.3831 28.0012 22.3576 27.9016C22.3448 27.8428 22.3295 27.7866 22.3193 27.7278C22.3066 27.669 22.2964 27.6102 22.2862 27.5514C22.276 27.4952 22.2684 27.4339 22.2607 27.3777C22.2123 27.025 22.2097 26.6672 22.2454 26.3094C21.7382 26.0769 21.185 25.9389 20.6038 25.9057C20.5172 25.9006 20.428 25.898 20.3438 25.898C20.2572 25.898 20.168 25.9006 20.0813 25.9057C19.5001 25.9389 18.947 26.0769 18.4397 26.3094C18.4372 26.3094 18.4372 26.3094 18.4346 26.312C18.4346 26.3094 18.4346 26.3069 18.4321 26.3043C18.2868 26.3708 18.1491 26.4423 18.0115 26.5216C17.9248 26.5701 17.8407 26.6238 17.7617 26.6774C17.6852 26.7286 17.6087 26.7797 17.5373 26.8359C17.5272 26.8436 17.517 26.8512 17.5068 26.8589C17.4303 26.9151 17.3589 26.9739 17.2875 27.0352C17.2213 27.0914 17.1575 27.1528 17.0938 27.2116C17.0811 27.2243 17.0683 27.2346 17.0556 27.2473C16.9893 27.3112 16.9256 27.3777 16.8644 27.4492C16.8007 27.5208 16.7344 27.5974 16.6732 27.6741C16.612 27.7508 16.556 27.83 16.4973 27.9118C16.4413 27.9936 16.3852 28.0753 16.3342 28.1622C16.3291 28.1673 16.3266 28.175 16.3215 28.1801C16.3138 28.1954 16.3011 28.2133 16.2934 28.2287C16.2883 28.2363 16.2858 28.244 16.2807 28.2517C16.036 28.6733 15.6791 29.0388 15.2305 29.2994C14.5014 29.7211 13.6679 29.7901 12.9261 29.5601C11.282 29.049 9.50023 29.2637 8.00904 30.1274C7.38452 30.4878 6.81354 30.9427 6.33942 31.4793C5.86275 32.016 5.48039 32.6319 5.23823 33.3117C5.09803 33.6924 4.83039 34.0298 4.45313 34.2496C3.5992 34.7428 2.51076 34.4489 2.0188 33.5953C1.52683 32.7418 1.81742 31.6506 2.67135 31.1548C3.04861 30.9376 3.4743 30.8737 3.8745 30.9427C4.58568 31.0704 5.30706 31.05 6.00804 30.9018C6.70648 30.7561 7.38452 30.4878 8.00904 30.1274C9.50023 29.2637 10.5785 27.8274 10.9583 26.1433C11.1291 25.3843 11.6057 24.6943 12.3348 24.2727C12.7859 24.012 13.2779 23.8868 13.7648 23.8842C13.6858 23.8842 13.6067 23.8817 13.5303 23.8766C13.5099 23.8766 13.4895 23.8766 13.4691 23.874C13.4283 23.8714 13.3875 23.8663 13.3493 23.8612C13.2703 23.8561 13.1912 23.8459 13.1097 23.8331C13.0867 23.8331 13.0638 23.828 13.0383 23.8229C12.9746 23.8127 12.9083 23.7999 12.842 23.7871C12.8395 23.7871 12.8318 23.7846 12.8267 23.7846C12.8216 23.7846 12.814 23.782 12.8063 23.782C12.7961 23.7794 12.7859 23.7769 12.7732 23.7743C12.7706 23.7743 12.7655 23.7718 12.763 23.7718C12.7299 23.7641 12.6967 23.7564 12.6636 23.7462C12.6406 23.7411 12.6177 23.7386 12.5922 23.7309L12.582 23.7283C12.5591 23.7232 12.5387 23.7181 12.5208 23.7104C12.5055 23.7079 12.4826 23.7028 12.4673 23.6951C12.4469 23.6926 12.4316 23.6849 12.4138 23.6823C12.3959 23.6772 12.3806 23.6721 12.3628 23.667C12.3348 23.6593 12.3093 23.6517 12.2863 23.6414C12.2736 23.6363 12.2608 23.6338 12.2455 23.6287C12.215 23.6159 12.1818 23.6031 12.1487 23.5903C12.1283 23.5878 12.113 23.5776 12.0926 23.5724C12.0875 23.5699 12.085 23.5673 12.0773 23.5673C12.0518 23.5597 12.0289 23.5494 12.0085 23.5392C12.0059 23.5392 12.0008 23.5341 11.9957 23.5341C11.9855 23.5316 11.9753 23.529 11.9651 23.5213C11.9448 23.5162 11.9269 23.506 11.9091 23.4983C11.8683 23.483 11.8326 23.4651 11.7969 23.4472C11.7714 23.4396 11.751 23.4268 11.7281 23.4166C11.7128 23.4114 11.7 23.4063 11.6899 23.3961C11.6032 23.3552 11.5191 23.3092 11.4349 23.2607C11.3712 23.2274 11.31 23.1866 11.2489 23.1482C11.1851 23.1022 11.1112 23.0537 11.0398 23Z" fill="white"/>
        <path d="M15.6944 31.078C15.8142 32.2459 16.3622 33.286 17.1779 34.0373C18.0752 34.8679 18.5646 36.0537 18.5646 37.2752V37.38C18.5646 38.4227 18.1746 39.4142 17.5323 40.2371C17.0632 40.8402 16.7828 41.5992 16.7828 42.4247C16.7828 44.4001 18.376 45.9973 20.3464 45.9999C22.3168 45.9973 23.91 44.4001 23.91 42.4247C23.91 41.5992 23.6296 40.8402 23.1605 40.2371C22.5182 39.4142 22.1282 38.4227 22.1282 37.38V37.2752C22.1282 36.0537 22.6176 34.8679 23.5149 34.0373C24.3305 33.286 24.8786 32.2459 24.9984 31.078C25.0009 31.0576 25.0035 31.0397 25.0035 31.0192C25.006 31.0116 25.006 31.0039 25.006 30.9937C25.0086 30.9886 25.0086 30.9834 25.0086 30.9758C25.0137 30.9298 25.0162 30.8838 25.0188 30.8352C25.0213 30.7534 25.0239 30.6742 25.0239 30.5924C25.0239 30.5388 25.0239 30.4851 25.0213 30.4314C25.0213 30.4212 25.0213 30.411 25.0188 30.3982C25.0188 30.3701 25.0162 30.342 25.0162 30.3139C25.0137 30.3011 25.0137 30.2909 25.0137 30.2807C25.0111 30.227 25.006 30.1759 25.0009 30.1248C25.0009 30.1171 24.9984 30.1094 24.9984 30.1043C24.9805 29.9408 24.9551 29.7823 24.9194 29.6239C24.9194 29.6188 24.9168 29.6137 24.9168 29.6086C24.899 29.5319 24.8837 29.4527 24.8633 29.3786C24.848 29.3249 24.8327 29.2738 24.8174 29.2227C24.8098 29.1971 24.8021 29.1716 24.7919 29.1486C24.7766 29.0949 24.7588 29.0438 24.7384 28.9927C24.7358 28.9799 24.7307 28.9697 24.7282 28.9569C24.7231 28.9441 24.7205 28.9339 24.7154 28.9211C24.7053 28.8981 24.6976 28.8777 24.6874 28.8547C24.6747 28.824 24.6645 28.7959 24.6517 28.7678C24.6415 28.7448 24.6339 28.7192 24.6237 28.6962C24.6109 28.6681 24.5982 28.6426 24.5854 28.6144C24.5676 28.5684 24.5447 28.5224 24.5217 28.4764C24.5013 28.4356 24.4809 28.3947 24.458 28.3563C24.4376 28.318 24.4147 28.2771 24.3917 28.2388C24.3841 28.2209 24.3739 28.2056 24.3637 28.1902C24.3611 28.1851 24.356 28.1774 24.3535 28.1723C24.3535 28.1698 24.3535 28.1698 24.3535 28.1672C23.8947 27.3137 23.8768 26.2454 24.3968 25.3433C24.9168 24.4387 25.8472 23.9224 26.8159 23.8918C26.7547 23.8892 26.6961 23.8867 26.6374 23.8841C26.5788 23.8816 26.5202 23.8764 26.4615 23.8688C26.3494 23.8586 26.2372 23.8432 26.1251 23.8253C26.0486 23.8126 25.9721 23.7972 25.8931 23.7793C25.7937 23.7563 25.6917 23.7308 25.5923 23.7027C25.5362 23.6848 25.4802 23.6694 25.4241 23.649C25.368 23.6311 25.3119 23.6107 25.2558 23.5902C25.2023 23.5698 25.1462 23.5468 25.0927 23.5238C24.7639 23.3883 24.4529 23.212 24.1623 23.0024C23.7086 23.327 23.3109 23.7384 22.9923 24.2266C22.9439 24.2981 22.898 24.3748 22.8547 24.4489C22.8113 24.5256 22.768 24.6022 22.7297 24.6814C22.4672 25.2028 22.3117 25.7522 22.2582 26.3093C22.2582 26.3119 22.2582 26.3119 22.2582 26.3144C22.2556 26.3144 22.2531 26.3119 22.2505 26.3119C22.2352 26.4703 22.2276 26.6262 22.2276 26.7847C22.2276 26.8843 22.2301 26.984 22.2378 27.0811C22.2429 27.1731 22.2505 27.2651 22.2633 27.3546C22.2633 27.3673 22.2658 27.3801 22.2684 27.3929C22.2786 27.4874 22.2939 27.5794 22.3117 27.6714C22.327 27.7583 22.3474 27.8427 22.3678 27.927C22.3729 27.9449 22.3754 27.9602 22.3805 27.9781C22.4035 28.0676 22.429 28.157 22.4595 28.2464C22.4901 28.3384 22.5233 28.433 22.559 28.525C22.5946 28.617 22.6354 28.7064 22.6762 28.7959C22.7196 28.8853 22.7629 28.9748 22.8113 29.0617C22.8139 29.0693 22.819 29.0744 22.8215 29.0821C22.8317 29.0974 22.8394 29.1153 22.8496 29.1307C22.8546 29.1383 22.8597 29.146 22.8623 29.1537C23.1045 29.5779 23.2421 30.0686 23.2421 30.5899C23.2421 31.4332 22.8852 32.1922 22.3143 32.7212C21.0499 33.8942 20.3464 35.5477 20.3464 37.2752C20.3464 37.9984 20.4535 38.7217 20.6778 39.4014C20.9021 40.0838 21.2437 40.7227 21.7101 41.2747C21.9701 41.5864 22.1282 41.9877 22.1282 42.4247C22.1282 43.4137 21.3303 44.211 20.3464 44.211C19.3625 44.211 18.5646 43.4137 18.5646 42.4247C18.5646 41.9877 18.7227 41.5864 18.9827 41.2747C19.4491 40.7227 19.7907 40.0838 20.015 39.4014C20.2393 38.7217 20.3464 37.9984 20.3464 37.2752C20.3464 35.5477 19.6429 33.8942 18.3785 32.7212C17.8076 32.1922 17.4507 31.4332 17.4507 30.5899C17.4507 30.0686 17.5883 29.5779 17.8305 29.1537C17.7897 29.2227 17.7489 29.2891 17.7056 29.353C17.6954 29.3709 17.6852 29.3888 17.6725 29.4041C17.6495 29.4373 17.6266 29.4706 17.6011 29.5012C17.5577 29.5677 17.5093 29.6316 17.4558 29.6954C17.443 29.7159 17.4277 29.7338 17.4124 29.7517C17.3717 29.8028 17.3283 29.8539 17.2824 29.905C17.2799 29.9076 17.2748 29.9127 17.2723 29.9178C17.2697 29.9229 17.2646 29.928 17.2595 29.9331C17.2519 29.9408 17.2442 29.9484 17.2366 29.9587C17.234 29.9612 17.2315 29.9638 17.2289 29.9663C17.206 29.9919 17.183 30.0174 17.1575 30.0404C17.1423 30.0583 17.127 30.0762 17.1091 30.0941L17.1015 30.1018C17.0862 30.1197 17.0709 30.135 17.0556 30.1452C17.0454 30.158 17.0301 30.1733 17.0148 30.1836C17.0021 30.1989 16.9893 30.2091 16.9766 30.2219C16.9638 30.2347 16.9511 30.2449 16.9383 30.2577C16.9179 30.2781 16.8975 30.296 16.8772 30.3113C16.867 30.319 16.8568 30.3292 16.8466 30.3394C16.8211 30.3599 16.793 30.3829 16.765 30.4059C16.7522 30.4212 16.737 30.4314 16.7217 30.4442C16.7166 30.4468 16.714 30.4493 16.7089 30.4544C16.6885 30.4723 16.6681 30.4877 16.6503 30.5004C16.6477 30.503 16.6426 30.5056 16.6401 30.5081C16.6324 30.5158 16.6248 30.5234 16.6146 30.5286C16.5993 30.5439 16.5815 30.5541 16.5662 30.5643C16.533 30.5924 16.4999 30.6154 16.4668 30.6359C16.4464 30.6538 16.426 30.6666 16.4056 30.6793C16.3928 30.6896 16.3826 30.6972 16.3699 30.7023C16.2909 30.756 16.2093 30.8071 16.1252 30.8557C16.064 30.894 15.9977 30.9272 15.934 30.9604C15.855 31.0039 15.776 31.0422 15.6944 31.078Z" fill="white"/>
        <path d="M24.9983 31.0782C26.0664 31.5587 27.239 31.6021 28.2968 31.2699C29.4617 30.907 30.7311 31.0731 31.7864 31.6839L31.8782 31.7375C32.778 32.2589 33.4408 33.092 33.8308 34.0631C34.1163 34.771 34.6337 35.3945 35.3449 35.8085C37.0502 36.795 39.2271 36.2123 40.2136 34.5027C41.1975 32.7904 40.6138 30.608 38.9085 29.6215C38.1947 29.2101 37.3994 29.0721 36.6449 29.1794C35.6126 29.3251 34.5623 29.1692 33.66 28.6479L33.5682 28.5942C32.5129 27.9834 31.7329 26.9663 31.4653 25.7729C31.2231 24.6893 30.5986 23.6927 29.6503 23.0052C29.6351 22.9924 29.6198 22.9822 29.6019 22.972C29.5968 22.9669 29.5892 22.9618 29.5815 22.9567C29.579 22.9515 29.5739 22.949 29.5662 22.9464C29.528 22.9183 29.4898 22.8928 29.449 22.8672C29.3801 22.8238 29.3113 22.7829 29.2425 22.742C29.1966 22.7164 29.1507 22.6883 29.1023 22.6628C29.0947 22.6577 29.0845 22.6525 29.0717 22.6474C29.0462 22.6347 29.0207 22.6219 28.9978 22.6065C28.985 22.6014 28.9774 22.5963 28.9672 22.5912C28.9188 22.5657 28.8729 22.5452 28.827 22.5248C28.8194 22.5197 28.8117 22.5197 28.8092 22.5171C28.6588 22.4507 28.5084 22.3944 28.3554 22.3459C28.3503 22.3433 28.3452 22.3433 28.3401 22.3408C28.2662 22.3178 28.1897 22.2922 28.1158 22.2718C28.0623 22.259 28.0113 22.2462 27.9578 22.2334C27.9323 22.2283 27.9068 22.2207 27.8813 22.2181C27.8278 22.2053 27.7743 22.1951 27.7207 22.1874C27.708 22.1823 27.6978 22.1823 27.685 22.1772C27.6723 22.1747 27.6621 22.1721 27.6468 22.1695C27.6213 22.167 27.6009 22.1644 27.5754 22.1619C27.5423 22.1568 27.5143 22.1517 27.4837 22.1491C27.4582 22.1465 27.4327 22.1414 27.4072 22.1363C27.3766 22.1338 27.3486 22.1312 27.318 22.1287C27.2695 22.121 27.2186 22.1184 27.1676 22.1159C27.1217 22.1133 27.0758 22.1108 27.0325 22.1108C26.9892 22.1082 26.9433 22.1082 26.8974 22.1108C26.877 22.1082 26.8591 22.1108 26.8413 22.1108C26.8362 22.1108 26.826 22.1108 26.8209 22.1108C26.8184 22.1082 26.8184 22.1082 26.8158 22.1082C25.8497 22.0801 24.9168 21.5613 24.3993 20.6592C23.8768 19.7545 23.8972 18.6889 24.356 17.8328C24.3229 17.8839 24.2923 17.935 24.2591 17.9835C24.2285 18.0321 24.1929 18.0807 24.1572 18.1292C24.0934 18.2212 24.0221 18.3107 23.9507 18.4001C23.9023 18.4589 23.8487 18.5177 23.7952 18.579C23.7264 18.6531 23.6525 18.7298 23.5785 18.8013C23.5352 18.8422 23.4944 18.8831 23.4485 18.9214C23.4052 18.9623 23.3593 19.0007 23.3134 19.039C23.2701 19.0748 23.2217 19.1131 23.1758 19.1463C22.8954 19.3635 22.587 19.545 22.2607 19.6932C22.3142 20.2503 22.4697 20.7998 22.7323 21.3211C22.7705 21.3978 22.8138 21.477 22.8546 21.5511C22.8979 21.6278 22.9438 21.7019 22.9923 21.776C23.3109 22.2641 23.7085 22.673 24.1623 23.0001C24.1648 23.0001 24.1648 23.0001 24.1674 23.0027C24.1674 23.0052 24.1623 23.0052 24.1623 23.0078C24.2923 23.0998 24.4223 23.1841 24.5599 23.2633C24.6466 23.3144 24.7333 23.3604 24.8199 23.4039C24.9015 23.4448 24.9856 23.4857 25.0697 23.5189C25.0799 23.5265 25.0927 23.5291 25.1054 23.5342C25.1921 23.5725 25.2787 23.6058 25.368 23.6364C25.4495 23.6671 25.5336 23.6901 25.6178 23.7157C25.6356 23.7208 25.6509 23.7259 25.6687 23.731C25.758 23.7565 25.8472 23.7795 25.9389 23.7974C26.0333 23.8179 26.1327 23.8358 26.2295 23.8511C26.3264 23.8664 26.4233 23.8767 26.5227 23.8843C26.6221 23.892 26.7215 23.8997 26.8209 23.8997C26.8286 23.9022 26.8362 23.8997 26.8439 23.9022C26.8617 23.9022 26.8821 23.9022 26.8999 23.9022C26.9101 23.9022 26.9178 23.9022 26.9254 23.9022C27.4123 23.9048 27.9068 24.03 28.3554 24.2907C29.0845 24.7123 29.5611 25.4023 29.7319 26.1613C30.1143 27.8454 31.19 29.2817 32.6812 30.1454C33.3057 30.5058 33.9837 30.7767 34.6822 30.9198C35.3831 31.0654 36.1071 31.0884 36.8157 30.9607C37.2159 30.8917 37.6416 30.953 38.0188 31.1728C38.8728 31.666 39.1634 32.7598 38.6714 33.6133C38.1794 34.4669 37.091 34.7608 36.2371 34.2675C35.8598 34.0503 35.5922 33.7104 35.452 33.3297C35.2073 32.6499 34.8274 32.034 34.3508 31.4973C33.8767 30.9632 33.3057 30.5083 32.6812 30.1454C31.19 29.2817 29.4082 29.067 27.7641 29.5781C27.0223 29.8081 26.1888 29.7391 25.4597 29.3174C25.0085 29.0568 24.6542 28.6913 24.4095 28.2697C24.4478 28.3387 24.486 28.4077 24.5191 28.4767C24.5293 28.4945 24.5395 28.5124 24.5472 28.5303C24.565 28.5661 24.5829 28.6044 24.5956 28.6402C24.6313 28.7118 24.6619 28.7859 24.6899 28.8625C24.7001 28.883 24.7078 28.906 24.718 28.929C24.7409 28.9903 24.7638 29.0542 24.7842 29.1181C24.7842 29.1207 24.7868 29.1283 24.7893 29.1334C24.7919 29.1385 24.7944 29.1462 24.797 29.1513C24.7995 29.1615 24.8021 29.1718 24.8072 29.1845C24.8072 29.1871 24.8097 29.1922 24.8097 29.1948C24.8199 29.228 24.8301 29.2612 24.8378 29.2944C24.8454 29.3174 24.8531 29.3379 24.8607 29.3634L24.8633 29.3737C24.8709 29.3967 24.876 29.4171 24.8785 29.435C24.8836 29.4503 24.8913 29.4708 24.8913 29.4887C24.8989 29.5065 24.9015 29.5244 24.9066 29.5423C24.9117 29.5602 24.9142 29.5755 24.9193 29.5934C24.927 29.6215 24.9321 29.6471 24.9346 29.6727C24.9372 29.6854 24.9397 29.6982 24.9448 29.7135C24.9499 29.7468 24.955 29.7825 24.9601 29.8183C24.9678 29.8362 24.9678 29.8567 24.9729 29.8745C24.9729 29.8797 24.9729 29.8848 24.9754 29.8899C24.9805 29.9154 24.9831 29.941 24.9856 29.964C24.9856 29.9665 24.9856 29.9742 24.9882 29.9768C24.9907 29.987 24.9933 29.9972 24.9933 30.01C24.9984 30.0304 24.9984 30.0509 25.0009 30.0688C25.0085 30.1122 25.0111 30.1531 25.0136 30.1914C25.0187 30.217 25.0187 30.2425 25.0213 30.2655C25.0238 30.2809 25.0264 30.2937 25.0238 30.309C25.0315 30.4035 25.034 30.5007 25.034 30.5978C25.0366 30.6693 25.0315 30.7434 25.0289 30.815C25.0136 30.9019 25.0085 30.9888 24.9983 31.0782Z" fill="white"/>
        <path d="M29.6504 23C30.5986 22.3126 31.2231 21.3159 31.4653 20.2323C31.7329 19.0389 32.5129 18.0192 33.5682 17.4084L33.66 17.3548C34.5598 16.8334 35.6126 16.6776 36.6449 16.8232C37.3994 16.928 38.1973 16.7926 38.9085 16.3811C40.6138 15.3947 41.1975 13.2122 40.2136 11.5C39.2271 9.79033 37.0502 9.20511 35.3449 10.1941C34.6312 10.6056 34.1163 11.2291 33.8308 11.9396C33.4408 12.9081 32.7806 13.7438 31.8782 14.2651L31.7864 14.3162C30.7311 14.927 29.4617 15.0957 28.2968 14.7302C27.239 14.398 26.069 14.4414 24.9984 14.9219C24.9805 14.9296 24.9627 14.9372 24.9448 14.9474C24.9372 14.95 24.9295 14.9526 24.9219 14.9577C24.9168 14.9577 24.9117 14.9602 24.904 14.9653C24.8607 14.9832 24.8199 15.0037 24.7766 15.0267C24.7052 15.065 24.6338 15.1033 24.565 15.1442C24.5191 15.1698 24.4733 15.1979 24.4274 15.226C24.4197 15.2311 24.4095 15.2362 24.3993 15.2439C24.3738 15.2567 24.3509 15.2746 24.328 15.2873C24.3178 15.295 24.3101 15.3001 24.2999 15.3052C24.254 15.3333 24.2133 15.364 24.1725 15.3947C24.1648 15.3998 24.1597 15.4049 24.1572 15.4074C24.0246 15.5046 23.8997 15.6068 23.7825 15.7167C23.7774 15.7192 23.7748 15.7243 23.7697 15.7269C23.7136 15.7806 23.6525 15.8342 23.5989 15.8879C23.5607 15.9288 23.525 15.9671 23.4868 16.0054C23.4689 16.0259 23.4511 16.0438 23.4358 16.0642C23.3976 16.1051 23.3619 16.146 23.3287 16.1894C23.3185 16.1971 23.3134 16.2073 23.3032 16.215C23.2956 16.2252 23.288 16.2329 23.2778 16.2431C23.2625 16.2636 23.2497 16.2814 23.2344 16.3019C23.214 16.3274 23.1962 16.3504 23.1783 16.376C23.163 16.3964 23.1452 16.4169 23.1299 16.4373C23.1121 16.4629 23.0968 16.4859 23.0789 16.5114C23.0483 16.5498 23.0203 16.5932 22.9923 16.6367C22.9668 16.675 22.9413 16.7133 22.9209 16.7517C22.8979 16.7874 22.875 16.8283 22.8521 16.8692C22.8393 16.8846 22.8317 16.9024 22.824 16.9178C22.8215 16.9229 22.8164 16.9306 22.8138 16.9357C22.8113 16.9382 22.8113 16.9382 22.8087 16.9382C22.3015 17.7637 21.3864 18.3131 20.3489 18.3131C19.3064 18.3131 18.3963 17.7637 17.8865 16.9382C17.9146 16.9919 17.9426 17.0456 17.9681 17.0967C17.9961 17.1478 18.0191 17.2014 18.042 17.2577C18.0905 17.3599 18.1312 17.4647 18.172 17.572C18.2001 17.6436 18.223 17.7177 18.2485 17.7969C18.2791 17.894 18.3071 17.9962 18.3326 18.0959C18.3454 18.1547 18.3607 18.2109 18.3709 18.2697C18.3836 18.3284 18.3938 18.3872 18.404 18.446C18.4142 18.5022 18.4218 18.5636 18.4269 18.6198C18.4754 18.9724 18.4779 19.3302 18.4422 19.688C18.9495 19.9206 19.5026 20.0586 20.0838 20.0918C20.1705 20.0969 20.2597 20.0994 20.3438 20.0994C20.4305 20.0994 20.5197 20.0969 20.6064 20.0918C21.1875 20.0586 21.7407 19.9206 22.2479 19.688C22.2505 19.688 22.2505 19.688 22.253 19.6854C22.253 19.688 22.253 19.6906 22.2556 19.6931C22.4009 19.6267 22.5385 19.5551 22.6762 19.4759C22.7628 19.4273 22.847 19.3737 22.926 19.32C23.0025 19.2689 23.0789 19.2178 23.1503 19.1616C23.1605 19.1539 23.1707 19.1462 23.1809 19.1386C23.2574 19.0823 23.3287 19.0236 23.4001 18.9622C23.4664 18.906 23.5301 18.8447 23.5938 18.7859C23.6066 18.7731 23.6193 18.7629 23.6321 18.7501C23.6983 18.6862 23.7621 18.6198 23.8232 18.5482C23.887 18.4767 23.9533 18.4 24.0144 18.3233C24.0756 18.2467 24.1317 18.1674 24.1903 18.0857C24.2464 18.0039 24.3025 17.9221 24.3535 17.8352C24.3585 17.8301 24.3611 17.8224 24.3662 17.8173C24.3738 17.802 24.3866 17.7841 24.3942 17.7688C24.3993 17.7611 24.4019 17.7534 24.407 17.7458C24.6517 17.3241 25.0086 16.9587 25.4572 16.698C26.1862 16.2763 27.0197 16.2073 27.7615 16.4373C29.4056 16.9484 31.1874 16.7338 32.6786 15.87C33.3031 15.5097 33.8741 15.0548 34.3482 14.5181C34.8249 13.9814 35.2073 13.3656 35.4494 12.6858C35.5896 12.305 35.8573 11.9677 36.2345 11.7479C37.0885 11.2547 38.1769 11.5486 38.6689 12.4021C39.1608 13.2557 38.8702 14.3469 38.0163 14.8427C37.639 15.0599 37.2134 15.1238 36.8132 15.0548C36.102 14.927 35.3806 14.9474 34.6796 15.0957C33.9812 15.2413 33.3031 15.5097 32.6786 15.87C31.1874 16.7338 30.1092 18.17 29.7294 19.8541C29.5586 20.6131 29.0819 21.3031 28.3529 21.7248C27.9017 21.9854 27.4097 22.1107 26.9229 22.1132C27.0019 22.1132 27.0809 22.1158 27.1574 22.1209C27.1778 22.1209 27.1982 22.1209 27.2186 22.1234C27.2594 22.126 27.3001 22.1311 27.3384 22.1362C27.4174 22.1413 27.4964 22.1516 27.578 22.1643C27.6009 22.1643 27.6239 22.1694 27.6494 22.1746C27.7131 22.1848 27.7794 22.1976 27.8456 22.2103C27.8482 22.2103 27.8558 22.2129 27.8609 22.2129C27.866 22.2129 27.8737 22.2154 27.8813 22.2154C27.8915 22.218 27.9017 22.2206 27.9145 22.2231C27.917 22.2231 27.9221 22.2257 27.9247 22.2257C27.9578 22.2333 27.9909 22.241 28.0241 22.2512C28.047 22.2563 28.07 22.2589 28.0954 22.2666L28.1056 22.2691C28.1286 22.2742 28.149 22.2793 28.1668 22.287C28.1821 22.2896 28.205 22.2947 28.2203 22.3023C28.2407 22.3049 28.256 22.3126 28.2739 22.3151C28.2917 22.3202 28.307 22.3253 28.3249 22.3304C28.3529 22.3381 28.3784 22.3458 28.4013 22.356C28.4141 22.3611 28.4268 22.3637 28.4421 22.3688C28.4727 22.3816 28.5058 22.3943 28.539 22.4071C28.5594 22.4097 28.5747 22.4199 28.5951 22.425C28.6002 22.4276 28.6027 22.4301 28.6103 22.4301C28.6358 22.4378 28.6588 22.448 28.6792 22.4582C28.6817 22.4582 28.6868 22.4633 28.6919 22.4633C28.7021 22.4659 28.7123 22.4684 28.7225 22.4761C28.7429 22.4812 28.7607 22.4914 28.7786 22.4991C28.8194 22.5144 28.8551 22.5323 28.8907 22.5502C28.9162 22.5579 28.9366 22.5707 28.9596 22.5809C28.9749 22.586 28.9876 22.5911 28.9978 22.6013C29.0845 22.6422 29.1686 22.6882 29.2527 22.7368C29.3164 22.77 29.3776 22.8109 29.4388 22.8492C29.5051 22.8978 29.579 22.9463 29.6504 23Z" fill="white"/>
        <path d="M2.02137 12.3945C2.51334 11.541 3.60178 11.2471 4.45571 11.7403C4.83296 11.9601 5.10061 12.2974 5.24081 12.6782C5.48297 13.3605 5.86532 13.9764 6.342 14.5131C6.81867 15.0472 7.38965 15.5021 8.01417 15.8624C9.50535 16.7262 11.2846 16.9434 12.9313 16.4323C13.673 16.1998 14.5066 16.2688 15.2356 16.6904C15.6868 16.9511 16.0411 17.3165 16.2858 17.7408C16.2476 17.6692 16.2119 17.6002 16.1762 17.5312C16.166 17.5133 16.1558 17.4954 16.1507 17.4775C16.1329 17.4418 16.115 17.4034 16.1023 17.3676C16.0666 17.2961 16.0334 17.222 16.0054 17.1428C15.9952 17.1223 15.9876 17.0993 15.9799 17.0763C15.9544 17.0175 15.934 16.9536 15.9111 16.8872C15.9111 16.8846 15.9085 16.877 15.906 16.8719C15.9034 16.8668 15.9009 16.8616 15.8983 16.854C15.8958 16.8438 15.8932 16.8335 15.8882 16.8208C15.8882 16.8182 15.8856 16.8156 15.8856 16.8105C15.8754 16.7773 15.8652 16.7466 15.8576 16.7109C15.8499 16.6904 15.8423 16.6674 15.8346 16.6419L15.8321 16.6316C15.8244 16.6112 15.8193 16.5882 15.8168 16.5703C15.8117 16.555 15.8066 16.5345 15.804 16.5166C15.7989 16.4988 15.7964 16.4809 15.7913 16.463C15.7862 16.4476 15.7836 16.4298 15.7785 16.4119C15.7709 16.3838 15.7658 16.3582 15.7632 16.3326C15.7607 16.3199 15.7581 16.3071 15.7556 16.2918C15.7505 16.2611 15.7429 16.2253 15.7378 16.1895C15.7301 16.1691 15.7301 16.1512 15.7276 16.1308C15.7276 16.1256 15.725 16.1231 15.725 16.1154C15.7199 16.0899 15.7148 16.0643 15.7148 16.0413C15.7123 16.0388 15.7123 16.0311 15.7123 16.0285C15.7097 16.0183 15.7072 16.0081 15.7072 15.9953C15.7021 15.9749 15.7021 15.9544 15.6995 15.9365C15.6919 15.8931 15.6893 15.8522 15.6893 15.8139C15.6842 15.7883 15.6817 15.7628 15.6817 15.7398C15.6791 15.7244 15.6766 15.7116 15.6791 15.6963C15.6715 15.6018 15.6689 15.5046 15.6689 15.4075C15.6664 15.336 15.6715 15.2619 15.674 15.1903C15.6766 15.0983 15.6817 15.0114 15.6919 14.922C14.6238 14.4415 13.4513 14.3981 12.3934 14.7303C11.2285 15.0958 9.95908 14.9271 8.90378 14.3163L8.81456 14.2626C7.9122 13.7413 7.252 12.9082 6.862 11.9396C6.57651 11.2292 6.05905 10.6082 5.34787 10.1942C3.64001 9.20775 1.46568 9.79042 0.479204 11.5001C0.423125 11.5972 0.374694 11.6943 0.33136 11.794L2.02137 12.3945Z" fill="white"/>
        <path d="M23.9762 18.3619C23.9278 18.4232 23.8743 18.4845 23.8233 18.5407C23.7621 18.6123 23.6958 18.6787 23.6321 18.7426C23.6194 18.758 23.6066 18.7656 23.5939 18.781C23.5302 18.8397 23.469 18.9011 23.4002 18.9573C23.3313 19.0186 23.2574 19.0774 23.1809 19.1336C23.1707 19.1413 23.1631 19.1515 23.1503 19.1566C23.079 19.2129 23.0051 19.2665 22.9286 19.3151C22.847 19.3713 22.7629 19.4224 22.6762 19.4735C22.5386 19.5527 22.4009 19.6243 22.2556 19.6907V19.6805C22.2531 19.6831 22.2531 19.6831 22.2505 19.6831C21.7433 19.9156 21.1901 20.0562 20.609 20.0894C20.5223 20.0945 20.4331 20.0971 20.3464 20.0971C20.2597 20.0971 20.1705 20.0945 20.0839 20.0894C19.5027 20.0562 18.9495 19.9156 18.4423 19.6856C18.478 19.3279 18.4754 18.9701 18.427 18.6149C18.4193 18.5586 18.4117 18.4973 18.404 18.4411C18.3938 18.3823 18.3836 18.3235 18.3709 18.2647C18.3582 18.206 18.3454 18.1497 18.3327 18.0935C18.3072 17.9913 18.2766 17.8916 18.2485 17.792C18.2231 17.7153 18.1976 17.6412 18.1721 17.5696C18.1313 17.4623 18.088 17.3575 18.0421 17.2553C18.0191 17.1991 17.9936 17.148 17.9656 17.0943C17.9401 17.0432 17.9121 16.9895 17.884 16.9359C18.3938 17.7613 19.3064 18.3107 20.3464 18.3107C21.3864 18.3107 22.299 17.7613 22.8088 16.9359C22.8113 16.9359 22.8113 16.9359 22.8113 16.9333C22.8164 16.9282 22.819 16.9205 22.8215 16.9154C22.8317 16.9001 22.8394 16.8822 22.8496 16.8669C22.8725 16.8285 22.8954 16.7876 22.9184 16.7519C22.9413 16.711 22.9668 16.6726 22.9898 16.6343C23.0076 16.6113 23.0254 16.5857 23.0433 16.5627L23.9762 18.3619Z" fill="white"/>
        <path d="M2.02136 33.6056C1.52939 32.752 1.81998 31.6608 2.67391 31.165C3.05117 30.9478 3.47686 30.8839 3.87706 30.9529C4.58824 31.0832 5.30962 31.0602 6.01315 30.9146C6.71159 30.7689 7.39218 30.5006 8.01415 30.1377C9.50534 29.2739 10.5836 27.8377 10.9659 26.1536C11.1367 25.3946 11.6134 24.7046 12.3399 24.2829C12.791 24.0222 13.283 23.897 13.7724 23.897C13.6909 23.8944 13.6144 23.8919 13.5379 23.8868C13.5175 23.8868 13.4971 23.8868 13.4793 23.8817C13.4385 23.8791 13.3977 23.8766 13.3595 23.8689C13.2805 23.8638 13.1989 23.8561 13.1173 23.8408C13.0944 23.8382 13.0714 23.8357 13.046 23.8306C12.9822 23.8229 12.916 23.8101 12.8471 23.7948C12.8446 23.7948 12.8369 23.7922 12.8318 23.7922C12.8267 23.7922 12.8216 23.7922 12.8114 23.7897C12.8012 23.7871 12.791 23.7846 12.7783 23.782C12.7758 23.7794 12.7732 23.782 12.7681 23.7794C12.735 23.7718 12.7018 23.7641 12.6687 23.7539C12.6483 23.7513 12.6228 23.7462 12.5973 23.7386L12.5871 23.736C12.5667 23.7334 12.5438 23.7258 12.5259 23.7181C12.5107 23.7156 12.4903 23.7079 12.4724 23.7028C12.4546 23.6977 12.4367 23.6926 12.4189 23.6874C12.4036 23.6849 12.3858 23.6772 12.3679 23.6721C12.3399 23.6644 12.3144 23.6568 12.2914 23.6466C12.2787 23.6414 12.2659 23.6389 12.2532 23.6338C12.2252 23.6236 12.1895 23.6108 12.1563 23.598C12.1359 23.5954 12.1207 23.5852 12.1003 23.5776C12.0952 23.575 12.0926 23.575 12.085 23.5724C12.0595 23.5648 12.0365 23.5546 12.0161 23.5443C12.0136 23.5443 12.0059 23.5418 12.0034 23.5392C11.9932 23.5367 11.983 23.5341 11.9728 23.5264C11.9524 23.5213 11.9346 23.5111 11.9193 23.5034C11.8785 23.4881 11.8403 23.4702 11.8071 23.4498C11.7816 23.4421 11.7587 23.4319 11.7383 23.4191C11.723 23.414 11.7103 23.4089 11.7001 23.3987C11.6134 23.3578 11.5293 23.3118 11.4452 23.2632C11.3814 23.23 11.3203 23.1891 11.2591 23.1508C11.1801 23.1022 11.1087 23.0537 11.0373 23C10.0891 23.6874 9.46455 24.6841 9.22239 25.7677C8.95474 26.9611 8.17474 27.9782 7.11943 28.589L7.02767 28.6401C6.12531 29.164 5.07765 29.3199 4.04529 29.1742C3.28823 29.0669 2.49293 29.2049 1.78175 29.6163C0.0764376 30.6053 -0.509842 32.7878 0.474088 34.4974C0.530167 34.5946 0.588795 34.6866 0.65507 34.7734L2.02136 33.6056Z" fill="white"/>
        <path d="M18.1542 17.5311C18.1823 17.6027 18.2103 17.6819 18.2333 17.7534C18.2639 17.8429 18.2893 17.9323 18.3123 18.0192C18.3199 18.0371 18.3199 18.0524 18.325 18.0703C18.3429 18.1547 18.3658 18.239 18.3811 18.3259C18.399 18.4153 18.4142 18.5099 18.4244 18.6044C18.427 18.6172 18.4321 18.63 18.4295 18.6428C18.4423 18.7322 18.4525 18.8242 18.455 18.9137C18.4627 19.0133 18.4652 19.1104 18.4652 19.2127C18.4652 19.3711 18.4576 19.527 18.4423 19.6854L18.4346 19.6803C18.4346 19.6829 18.4346 19.6829 18.4346 19.6854C18.3811 20.2425 18.2256 20.792 17.9656 21.3133C17.9274 21.39 17.884 21.4692 17.8407 21.5459C17.7974 21.62 17.7515 21.6967 17.7031 21.7708C17.3844 22.2589 16.9868 22.6678 16.5331 22.9949C16.2425 22.7853 15.9315 22.609 15.6001 22.4735C15.5466 22.4531 15.4905 22.4275 15.4395 22.4071C15.3834 22.3867 15.3274 22.3662 15.2713 22.3483C15.2152 22.3304 15.1591 22.3125 15.103 22.2947C15.0011 22.2665 14.9017 22.2435 14.7997 22.218C14.7207 22.2027 14.6442 22.1873 14.5703 22.172C14.4581 22.1541 14.346 22.1388 14.2338 22.1285C14.1726 22.1209 14.1166 22.1158 14.0554 22.1132C13.9993 22.1107 13.9381 22.1081 13.877 22.1055C14.8456 22.0749 15.776 21.5587 16.296 20.654C16.816 19.7519 16.7982 18.6836 16.3393 17.8301C16.3393 17.8275 16.3393 17.8275 16.3393 17.8275C16.3368 17.8199 16.3317 17.8148 16.3291 17.8097C16.3215 17.7943 16.3087 17.7764 16.3011 17.7611C16.2807 17.7228 16.2552 17.6819 16.2374 17.6435C16.2144 17.6027 16.194 17.5618 16.1711 17.5234C16.1609 17.4953 16.1481 17.4672 16.1354 17.4417L18.1542 17.5311Z" fill="white"/>
        <path d="M20.3438 44.2113C19.3599 44.2113 18.562 43.4139 18.562 42.4249C18.562 41.9879 18.7201 41.5867 18.9801 41.2749C19.4491 40.7229 19.7881 40.084 20.015 39.4017C20.2368 38.7219 20.3464 37.9987 20.3438 37.2755C20.3438 35.5479 19.6428 33.897 18.3785 32.7215C17.8075 32.195 17.4507 31.4361 17.4507 30.5927C17.4507 30.0714 17.5883 29.5807 17.833 29.1565C17.7897 29.2255 17.7489 29.2919 17.7056 29.3558C17.6954 29.3737 17.6852 29.3916 17.6724 29.4044C17.6495 29.4376 17.6265 29.4734 17.6011 29.5015C17.5577 29.5679 17.5093 29.6344 17.4558 29.6983C17.443 29.7162 17.4277 29.7366 17.4099 29.7545C17.3716 29.8056 17.3258 29.8567 17.2799 29.9078C17.2773 29.9078 17.2722 29.9155 17.2697 29.9206C17.2671 29.9257 17.2646 29.9308 17.2569 29.9359C17.2493 29.9436 17.2416 29.9513 17.234 29.9615C17.2314 29.9615 17.2314 29.9666 17.2263 29.9692C17.2034 29.9947 17.1805 30.0177 17.155 30.0433C17.1422 30.0612 17.1244 30.079 17.1065 30.0969L17.0989 30.1046C17.0861 30.1225 17.0683 30.1378 17.053 30.1481C17.0428 30.1608 17.0275 30.1736 17.0122 30.1864C16.9995 30.1992 16.9842 30.2119 16.9714 30.2247C16.9612 30.2375 16.9459 30.2477 16.9332 30.2605C16.9128 30.2809 16.8924 30.2988 16.872 30.3142C16.8618 30.3218 16.8516 30.3321 16.8414 30.3423C16.8185 30.3627 16.7905 30.3857 16.7624 30.4087C16.7497 30.4266 16.7344 30.4343 16.7165 30.4471C16.7114 30.4496 16.7114 30.4522 16.7038 30.4573C16.6834 30.4752 16.6656 30.4905 16.6452 30.5033C16.6452 30.5058 16.6375 30.5109 16.635 30.5109C16.6273 30.5186 16.6197 30.5263 16.6095 30.5314C16.5942 30.5467 16.5763 30.5569 16.5636 30.5672C16.5305 30.5953 16.4948 30.6183 16.4616 30.6362C16.4412 30.654 16.4208 30.6694 16.4005 30.6796C16.3877 30.6898 16.3775 30.6975 16.3648 30.7026C16.2857 30.7563 16.2042 30.8074 16.1201 30.8559C16.0589 30.8943 15.9926 30.9275 15.9289 30.9607C15.8473 31.0042 15.7708 31.0425 15.6893 31.0783C15.8091 32.2462 16.3571 33.2863 17.1728 34.0376C18.0701 34.8656 18.5595 36.0514 18.5595 37.2729L18.5569 37.3777C18.5569 38.4229 18.1695 39.4119 17.5271 40.2348C17.0556 40.8379 16.7777 41.5969 16.7777 42.4224C16.7803 44.3978 18.3709 45.9976 20.3413 45.9976C20.4534 45.9976 20.5605 45.9925 20.6701 45.9797L20.3438 44.2113Z" fill="white"/>
        <path d="M14.5244 22.167C14.6008 22.1772 14.6824 22.1951 14.7563 22.2104C14.8481 22.2283 14.9399 22.2513 15.0265 22.2743C15.0469 22.2769 15.0597 22.2845 15.0775 22.2897C15.1591 22.3152 15.2432 22.3382 15.3273 22.3689C15.414 22.397 15.5032 22.4328 15.5899 22.4711C15.6026 22.4762 15.6154 22.4788 15.6256 22.4864C15.7097 22.5197 15.7938 22.558 15.8728 22.5989C15.962 22.6423 16.0487 22.6883 16.1354 22.7394C16.273 22.8187 16.403 22.903 16.533 22.995L16.5254 23.0001C16.5279 23.0001 16.5279 23.0001 16.5305 23.0027C16.9842 23.3272 17.3818 23.7361 17.703 24.2242C17.7515 24.2958 17.7973 24.3724 17.8407 24.4491C17.884 24.5232 17.9273 24.6024 17.9656 24.6817C18.2281 25.203 18.3836 25.7524 18.4371 26.3095C18.1109 26.4578 17.8024 26.6392 17.5195 26.859C17.4736 26.8948 17.4252 26.9305 17.3818 26.9663C17.336 27.0047 17.2901 27.043 17.2467 27.0839C17.2034 27.1248 17.1601 27.1631 17.1167 27.2014C17.0403 27.2755 16.9714 27.3522 16.8975 27.4263C16.844 27.4877 16.793 27.5464 16.7446 27.6027C16.6732 27.6921 16.6044 27.7815 16.5381 27.8735C16.4999 27.9221 16.4693 27.9681 16.4361 28.0192C16.4056 28.0678 16.3724 28.1189 16.3393 28.17C16.7981 27.3139 16.816 26.2482 16.2959 25.3461C15.7759 24.444 14.8455 23.9252 13.8769 23.8945C13.8769 23.892 13.8769 23.892 13.8744 23.8945C13.8667 23.892 13.8591 23.8945 13.854 23.8945C13.8361 23.8945 13.8157 23.8945 13.7979 23.8945C13.7546 23.8945 13.7061 23.8945 13.6653 23.892C13.6195 23.892 13.5736 23.8894 13.5277 23.8894C13.4997 23.8843 13.4691 23.8818 13.4385 23.8792L14.5244 22.167Z" fill="white"/>
        <path d="M38.6689 33.6055C38.1769 34.4591 37.0885 34.7529 36.2346 34.2597C35.8573 34.0399 35.5897 33.7026 35.4495 33.3218C35.2073 32.6395 34.825 32.0236 34.3483 31.4869C33.8716 30.9528 33.3006 30.4979 32.6761 30.1376C31.1849 29.2738 29.4057 29.0566 27.759 29.5677C27.0172 29.8003 26.1837 29.7313 25.4547 29.3096C25.0035 29.0489 24.6492 28.6835 24.4045 28.2593C24.4427 28.3308 24.4784 28.3998 24.5141 28.4688C24.5243 28.4867 24.5345 28.5046 24.5396 28.5225C24.5574 28.5583 24.5753 28.5966 24.588 28.6324C24.6237 28.7039 24.6568 28.7781 24.6849 28.8573C24.6951 28.8777 24.7027 28.9007 24.7104 28.9237C24.7359 28.9825 24.7562 29.0464 24.7792 29.1128C24.7792 29.1154 24.7817 29.1231 24.7843 29.1282C24.7868 29.1333 24.7894 29.1384 24.7919 29.1461C24.7945 29.1563 24.797 29.1665 24.8021 29.1793C24.8021 29.1818 24.8047 29.1844 24.8047 29.1895C24.8149 29.2227 24.8251 29.2534 24.8327 29.2892C24.8404 29.3096 24.848 29.3326 24.8557 29.3582L24.8582 29.3684C24.8659 29.3888 24.871 29.4118 24.8735 29.4297C24.8786 29.4451 24.8837 29.4655 24.8862 29.4834C24.8913 29.5013 24.8939 29.5192 24.899 29.5371C24.9041 29.5524 24.9066 29.5703 24.9117 29.5882C24.9194 29.6163 24.9245 29.6418 24.927 29.6674C24.9296 29.6802 24.9321 29.6929 24.9347 29.7083C24.9398 29.7389 24.9474 29.7747 24.9525 29.8105C24.9602 29.8309 24.9602 29.8488 24.9627 29.8693C24.9627 29.8744 24.9653 29.8769 24.9653 29.8846C24.9704 29.9102 24.9755 29.9357 24.9755 29.9587C24.978 29.9613 24.978 29.9689 24.978 29.9715C24.9806 29.9817 24.9831 29.9919 24.9831 30.0047C24.9882 30.0252 24.9882 30.0456 24.9908 30.0635C24.9984 30.1069 25.001 30.1478 25.001 30.1862C25.0061 30.2117 25.0086 30.2373 25.0086 30.2603C25.0112 30.2756 25.0137 30.2884 25.0112 30.3037C25.0188 30.3983 25.0213 30.4954 25.0213 30.5925C25.0239 30.6641 25.0188 30.7382 25.0162 30.8097C25.0137 30.9017 25.0086 30.9886 24.9984 31.0781C26.0665 31.5585 27.239 31.6019 28.2969 31.2697C29.4618 30.9043 30.7312 31.0729 31.7865 31.6837L31.8757 31.7374C32.7781 32.2587 33.4383 33.0918 33.8283 34.0604C34.1138 34.7708 34.6312 35.3918 35.3424 35.8058C37.0503 36.7923 39.2271 36.2096 40.2136 34.4999C40.2697 34.4028 40.3181 34.3057 40.3615 34.2061L38.6689 33.6055Z" fill="white"/>
        <path d="M16.7166 27.6383C16.765 27.577 16.8185 27.5156 16.8695 27.4594C16.9307 27.3879 16.9969 27.3214 17.0607 27.2575C17.0734 27.2422 17.0862 27.2345 17.0989 27.2192C17.1626 27.1604 17.2238 27.0991 17.2926 27.0429C17.3615 26.9815 17.4354 26.9227 17.5119 26.8665C17.522 26.8589 17.5297 26.8486 17.5424 26.8435C17.6138 26.7873 17.6877 26.7336 17.7642 26.6851C17.8458 26.6289 17.9299 26.5777 18.0166 26.5266C18.1542 26.4474 18.2919 26.3759 18.4372 26.3094V26.3196C18.4397 26.3171 18.4397 26.3171 18.4423 26.3171C18.9495 26.0845 19.5027 25.944 20.0838 25.9107C20.1705 25.9056 20.2597 25.9031 20.3464 25.9031C20.4331 25.9031 20.5223 25.9056 20.6089 25.9107C21.1901 25.944 21.7433 26.0845 22.2505 26.3145C22.2148 26.6723 22.2174 27.0301 22.2658 27.3853C22.2735 27.4415 22.2811 27.5029 22.2888 27.5591C22.2989 27.6179 22.3091 27.6766 22.3219 27.7354C22.3346 27.7942 22.3474 27.8504 22.3601 27.9066C22.3856 28.0089 22.4162 28.1085 22.4442 28.2082C22.4697 28.2849 22.4952 28.359 22.5207 28.4305C22.5615 28.5379 22.6048 28.6426 22.6507 28.7449C22.6737 28.8011 22.6991 28.8522 22.7272 28.9059C22.7527 28.957 22.7807 29.0106 22.8088 29.0643C22.299 28.2389 21.3864 27.6894 20.3464 27.6894C19.3064 27.6894 18.3938 28.2389 17.884 29.0643C17.8815 29.0643 17.8815 29.0643 17.8815 29.0669C17.8764 29.072 17.8738 29.0796 17.8713 29.0847C17.8611 29.1001 17.8534 29.118 17.8432 29.1333C17.8203 29.1716 17.7973 29.2125 17.7744 29.2483C17.7515 29.2892 17.726 29.3275 17.703 29.3659C17.6852 29.3889 17.6673 29.4144 17.6495 29.4374L16.7166 27.6383Z" fill="white"/>
        <path d="M38.6689 12.3945C39.1609 13.248 38.8703 14.3392 38.0164 14.835C37.6391 15.0522 37.2134 15.1161 36.8132 15.0471C36.102 14.9168 35.3807 14.9398 34.6771 15.0855C33.9787 15.2311 33.2981 15.4995 32.6761 15.8623C31.1849 16.7261 30.1067 18.1623 29.7243 19.8465C29.5536 20.6055 29.0769 21.2955 28.3504 21.7171C27.8992 21.9778 27.4073 22.103 26.9178 22.103C26.9994 22.1056 27.0759 22.1081 27.1549 22.1132C27.1753 22.1132 27.1957 22.1132 27.2135 22.1183C27.2543 22.1209 27.2951 22.1235 27.3333 22.1311C27.4124 22.1362 27.4939 22.1439 27.5755 22.1592C27.5984 22.1618 27.6214 22.1643 27.6469 22.1695C27.7106 22.1771 27.7769 22.1899 27.8457 22.2052C27.8482 22.2052 27.8559 22.2078 27.861 22.2078C27.8661 22.2078 27.8712 22.2078 27.8814 22.2103C27.8916 22.2129 27.9018 22.2155 27.9145 22.218C27.9171 22.2206 27.9196 22.218 27.9247 22.2206C27.9579 22.2282 27.991 22.2359 28.0241 22.2461C28.0445 22.2487 28.07 22.2538 28.0955 22.2615L28.1057 22.264C28.1261 22.2666 28.149 22.2742 28.1669 22.2819C28.1822 22.2845 28.2026 22.2921 28.2204 22.2972C28.2382 22.3023 28.2561 22.3075 28.2739 22.3126C28.2892 22.3151 28.3071 22.3228 28.3249 22.3279C28.353 22.3356 28.3784 22.3432 28.4014 22.3535C28.4141 22.3586 28.4269 22.3611 28.4396 22.3662C28.4677 22.3765 28.5033 22.3892 28.5365 22.402C28.5569 22.4046 28.5722 22.4148 28.5926 22.4225C28.5977 22.425 28.6002 22.425 28.6079 22.4276C28.6334 22.4352 28.6563 22.4455 28.6767 22.4557C28.6792 22.4557 28.6869 22.4582 28.6894 22.4608C28.6996 22.4633 28.7098 22.4659 28.72 22.4736C28.7404 22.4787 28.7583 22.4889 28.7735 22.4966C28.8143 22.5119 28.8526 22.5298 28.8857 22.5502C28.9112 22.5579 28.9341 22.5681 28.9545 22.5809C28.9698 22.586 28.9826 22.5911 28.9928 22.6013C29.0794 22.6422 29.1636 22.6882 29.2477 22.7368C29.3114 22.77 29.3726 22.8109 29.4337 22.8492C29.5128 22.8978 29.5841 22.9463 29.6555 23C30.6038 22.3126 31.2283 21.3159 31.4704 20.2323C31.7381 19.0389 32.5181 18.0218 33.5734 17.411L33.6652 17.3599C34.5675 16.836 35.6152 16.6801 36.6475 16.8258C37.4046 16.9331 38.1999 16.7951 38.9111 16.3837C40.6164 15.3947 41.2027 13.2122 40.2187 11.5026C40.1627 11.4055 40.104 11.3135 40.0378 11.2266L38.6689 12.3945Z" fill="white"/>
        <path d="M22.536 28.4688C22.508 28.3972 22.4799 28.318 22.457 28.2464C22.4264 28.157 22.4009 28.0676 22.378 27.9807C22.3703 27.9628 22.3703 27.9474 22.3652 27.927C22.3474 27.8427 22.3244 27.7583 22.3092 27.6714C22.2913 27.582 22.276 27.4874 22.2658 27.3929C22.2633 27.3801 22.2582 27.3673 22.2607 27.3546C22.248 27.2651 22.2378 27.1731 22.2352 27.0837C22.2276 26.984 22.225 26.8869 22.225 26.7847C22.225 26.6262 22.2327 26.4703 22.248 26.3119L22.2556 26.317C22.2556 26.3144 22.2556 26.3144 22.2556 26.3119C22.3092 25.7548 22.4646 25.2053 22.7246 24.684C22.7629 24.6073 22.8062 24.5281 22.8496 24.4514C22.8929 24.3773 22.9388 24.3007 22.9872 24.2266C23.3058 23.7384 23.7035 23.3296 24.1572 23.0024C24.4478 23.212 24.7588 23.3883 25.0902 23.5238C25.1437 23.5442 25.1998 23.5698 25.2507 23.5902C25.3068 23.6107 25.3629 23.6311 25.419 23.649C25.4751 23.6669 25.5311 23.6848 25.5847 23.7027C25.6866 23.7308 25.786 23.7538 25.888 23.7793C25.967 23.7947 26.0435 23.81 26.1174 23.8253C26.2296 23.8432 26.3417 23.8586 26.4539 23.8688C26.5151 23.8764 26.5711 23.8816 26.6323 23.8841C26.6884 23.8867 26.7496 23.8892 26.8108 23.8918C25.8421 23.9224 24.9117 24.4387 24.3917 25.3433C23.8717 26.2454 23.8896 27.3137 24.3484 28.1672C24.3484 28.1698 24.3484 28.1698 24.3484 28.1698C24.3509 28.1774 24.356 28.1826 24.3586 28.1877C24.3662 28.203 24.379 28.2209 24.3866 28.2362C24.407 28.2746 24.4325 28.3154 24.4503 28.3538C24.4733 28.3947 24.4937 28.4356 24.5166 28.4739C24.5268 28.502 24.5396 28.5301 24.5523 28.5557L22.536 28.4688Z" fill="white"/>
        <path d="M20.3464 1.78889C21.3303 1.78889 22.1282 2.58622 22.1282 3.57522C22.1282 4.01222 21.9701 4.41344 21.7101 4.72522C21.2411 5.27722 20.9021 5.91611 20.6752 6.59844C20.4535 7.27822 20.3439 8.00144 20.3464 8.72467C20.3464 10.4522 21.0474 12.1031 22.3117 13.2787C22.8827 13.8051 23.2396 14.5641 23.2396 15.4074C23.2396 15.9288 23.1019 16.4194 22.8572 16.8437C22.9005 16.7747 22.9413 16.7082 22.9847 16.6443C22.9949 16.6264 23.0051 16.6086 23.0178 16.5958C23.0407 16.5626 23.0637 16.5268 23.0892 16.4987C23.1325 16.4322 23.1809 16.3658 23.2345 16.3019C23.2472 16.284 23.2625 16.2636 23.2803 16.2457C23.3186 16.1946 23.3645 16.1434 23.4103 16.0923C23.4129 16.0898 23.418 16.0847 23.4205 16.0796C23.4231 16.0744 23.4256 16.0693 23.4333 16.0642C23.4409 16.0566 23.4486 16.0489 23.4562 16.0387C23.4588 16.0387 23.4588 16.0336 23.4639 16.031C23.4868 16.0054 23.5098 15.9824 23.5353 15.9569C23.548 15.939 23.5658 15.9211 23.5837 15.9032L23.5913 15.8956C23.6041 15.8777 23.6219 15.8623 23.6372 15.8521C23.6474 15.8393 23.6627 15.8266 23.678 15.8138C23.6907 15.801 23.706 15.7882 23.7188 15.7754C23.729 15.7627 23.7443 15.7524 23.757 15.7397C23.7774 15.7192 23.7978 15.7013 23.8182 15.686C23.8284 15.6783 23.8386 15.6681 23.8488 15.6579C23.8717 15.6374 23.8998 15.6144 23.9278 15.5914C23.9406 15.5736 23.9558 15.5659 23.9737 15.5531C23.9788 15.5506 23.9788 15.548 23.9864 15.5429C24.0068 15.525 24.0247 15.5097 24.0451 15.4969C24.0451 15.4943 24.0527 15.4892 24.0553 15.4892C24.0629 15.4816 24.0706 15.4739 24.0807 15.4688C24.096 15.4534 24.1139 15.4432 24.1266 15.433C24.1598 15.4049 24.1955 15.3819 24.2286 15.364C24.249 15.3461 24.2694 15.3308 24.2898 15.3206C24.3025 15.3103 24.3127 15.3027 24.3255 15.2976C24.4045 15.2439 24.486 15.1928 24.5702 15.1442C24.6313 15.1059 24.6976 15.0727 24.7613 15.0394C24.8429 14.996 24.9194 14.9577 25.001 14.9219C24.8811 13.754 24.3331 12.7139 23.5174 11.9626C22.6201 11.1346 22.1307 9.94878 22.1307 8.72722L22.1333 8.62245C22.1333 7.57722 22.5207 6.58822 23.1631 5.76533C23.6347 5.16222 23.9125 4.40322 23.9125 3.57778C23.9074 1.59978 22.3168 0.00255556 20.3464 0C20.2342 0 20.1272 0.00511111 20.0176 0.0178889L20.3464 1.78889Z" fill="white"/>
        <path d="M26.1659 23.8331C26.0894 23.8229 26.0078 23.805 25.9339 23.7896C25.8422 23.7717 25.7504 23.7487 25.6637 23.7257C25.6433 23.7232 25.6306 23.7155 25.6127 23.7104C25.5312 23.6849 25.4471 23.6619 25.3629 23.6312C25.2763 23.6031 25.1871 23.5673 25.1004 23.529C25.0876 23.5239 25.0749 23.5213 25.0647 23.5136C24.9806 23.4804 24.8965 23.4421 24.8174 23.4012C24.7282 23.3577 24.6416 23.3117 24.5549 23.2606C24.4172 23.1814 24.2872 23.0971 24.1572 23.0051L24.1649 23C24.1623 23 24.1623 23 24.1598 22.9974C23.7061 22.6729 23.3084 22.264 22.9872 21.7759C22.9388 21.7043 22.8929 21.6276 22.8496 21.551C22.8063 21.4769 22.7629 21.3976 22.7247 21.3184C22.4621 20.7971 22.3066 20.2476 22.2531 19.6905C22.5794 19.5423 22.8878 19.3609 23.1708 19.1411C23.2166 19.1053 23.2651 19.0695 23.3084 19.0337C23.3543 18.9954 23.4002 18.9571 23.4435 18.9162C23.4868 18.8753 23.5302 18.837 23.5735 18.7986C23.65 18.7245 23.7188 18.6479 23.7927 18.5737C23.8463 18.5124 23.8972 18.4536 23.9457 18.3974C24.017 18.308 24.0859 18.2185 24.1521 18.1265C24.1904 18.078 24.221 18.032 24.2541 17.9809C24.2847 17.9323 24.3178 17.8812 24.351 17.8301C23.8921 18.6862 23.8743 19.7519 24.3943 20.654C24.9143 21.5561 25.8447 22.0749 26.8133 22.1055C26.8133 22.1081 26.8133 22.1081 26.8159 22.1055C26.8235 22.1081 26.8312 22.1055 26.8363 22.1055C26.8541 22.1055 26.8745 22.1055 26.8924 22.1055C26.9357 22.1055 26.9841 22.1055 27.0249 22.1081C27.0708 22.1081 27.1167 22.1106 27.1626 22.1106C27.1906 22.1157 27.2212 22.1183 27.2518 22.1209L26.1659 23.8331Z" fill="white"/>
        <path d="M10.4153 5.75769C11.7994 4.95524 13.571 5.43058 14.3714 6.8208C15.1718 8.20847 14.6977 9.98458 13.311 10.787C11.9269 11.5895 10.1553 11.1141 9.35492 9.72391C8.55707 8.33369 9.03119 6.56013 10.4153 5.75769Z" fill="white"/>
        <path d="M3.38253 25.9031C4.98178 25.9031 6.27823 24.6034 6.27823 23C6.27823 21.3967 4.98178 20.0969 3.38253 20.0969C1.78327 20.0969 0.486816 21.3967 0.486816 23C0.486816 24.6034 1.78327 25.9031 3.38253 25.9031Z" fill="white"/>
        <path d="M10.4153 40.2424C9.03119 39.4399 8.55707 37.6664 9.35492 36.2761C10.1553 34.8885 11.9244 34.4131 13.311 35.213C14.6952 36.0155 15.1693 37.789 14.3714 39.1792C13.571 40.5695 11.7994 41.0448 10.4153 40.2424Z" fill="white"/>
        <path d="M30.2749 40.2423C28.8908 41.0448 27.1192 40.5695 26.3188 39.1792C25.5184 37.7916 25.9926 36.0155 27.3792 35.213C28.7634 34.4106 30.5349 34.8859 31.3353 36.2761C32.1332 37.6663 31.6591 39.4425 30.2749 40.2423Z" fill="white"/>
        <path d="M37.3103 25.9031C38.9095 25.9031 40.206 24.6034 40.206 23C40.206 21.3967 38.9095 20.0969 37.3103 20.0969C35.711 20.0969 34.4146 21.3967 34.4146 23C34.4146 24.6034 35.711 25.9031 37.3103 25.9031Z" fill="white"/>
        <path d="M31.6098 9.07172C32.0511 7.53059 31.1626 5.92265 29.6254 5.48028C28.0882 5.03792 26.4844 5.92865 26.0431 7.46979C25.6019 9.01092 26.4904 10.6189 28.0276 11.0612C29.5648 11.5036 31.1686 10.6129 31.6098 9.07172Z" fill="white"/>
        <path d="M173.997 11.5V29.7211C173.997 31.97 171.798 33.0766 170.085 32.4607H169.575C169.858 32.4607 170.085 32.2307 170.085 31.9496V14.4031C170.085 12.7982 171.382 11.5 172.98 11.5H173.997Z" fill="white"/>
        <path fill-rule="evenodd" clip-rule="evenodd" d="M160.485 26.6162C160.918 28.5763 159.216 30.2834 157.26 29.849C156.276 29.6292 155.481 28.8319 155.262 27.8454C154.829 25.8853 156.534 24.1782 158.487 24.6126C159.473 24.8324 160.268 25.6298 160.485 26.6162Z" fill="white"/>
        <path d="M157.385 17.0814C157.385 17.0814 157.9 15.9059 158.147 15.3437C158.767 13.9279 160.763 13.9177 161.4 15.3232L160.452 13.2302C160.059 12.3664 159.287 11.7097 158.354 11.5435C157.067 11.3161 155.825 11.9984 155.303 13.1535L145.662 34.4975H147.854C149.002 34.4975 150.042 33.8178 150.505 32.7623L157.385 17.0814Z" fill="white"/>
        <path d="M174 29.7212V30.5773C174 31.6609 173.562 32.6422 172.853 33.3501C172.147 34.0605 171.168 34.5001 170.087 34.5001V34.4975C167.569 34.4975 165.29 33.0076 164.275 30.6949L158.311 17.0993C158.132 16.6981 157.571 16.693 157.385 17.0814C157.645 16.4885 157.9 15.9059 158.147 15.3436C158.767 13.9279 160.763 13.9176 161.4 15.3232L165.216 23.7463L166.659 26.9305L168.466 30.9223C168.471 30.9351 168.476 30.9479 168.484 30.9581C168.846 31.7324 169.43 32.2231 170.087 32.4608C171.8 33.0766 174 31.9701 174 29.7212Z" fill="white"/>
        <path d="M100.075 29.0366V34.5004H101.09C102.688 34.5004 103.985 33.1996 103.985 31.5972V27.2502H101.857C100.873 27.2502 100.075 28.0501 100.075 29.0366Z" fill="white"/>
        <path d="M105.748 11.5002H102.972C101.374 11.5002 100.076 12.801 100.076 14.4034V15.009V19.3765H101.07C102.668 19.3765 103.966 18.0757 103.966 16.4734V15.009V13.2866C103.966 12.3001 104.764 11.5002 105.748 11.5002Z" fill="white"/>
        <path d="M116.124 13.6546C114.414 12.226 112.051 11.5002 109.101 11.5002H105.744C104.76 11.5002 103.963 12.3001 103.963 13.2866V15.009H109.005C110.916 15.009 112.387 15.4154 113.371 16.2127C114.345 17.0049 114.819 17.8661 114.819 19.3739C114.819 20.8791 114.345 21.7429 113.371 22.5326C112.387 23.3325 110.916 23.7362 109.005 23.7362H102.968C101.37 23.7362 100.073 25.037 100.073 26.6394V29.0314C100.073 28.0449 100.871 27.245 101.854 27.245H109.101C112.051 27.245 114.414 26.5192 116.124 25.0907C117.852 23.6468 118.732 21.8911 118.732 19.3714C118.732 16.8567 117.855 15.0985 116.124 13.6546Z" fill="white"/>
        <path d="M60.7946 28.1701C60.6162 28.5765 60.0401 28.5765 59.8616 28.1676L60.713 30.1124C61.335 31.5384 63.3538 31.5384 63.9758 30.1124L72.1174 11.5002H70.0247C68.8776 11.5002 67.8401 12.1775 67.3762 13.2304L60.7946 28.1701Z" fill="white"/>
        <path d="M60.7105 30.1149L59.8591 28.1701L53.3335 13.238C52.8722 12.1826 51.8322 11.5002 50.6825 11.5002H48.34L57.672 32.7625C58.0544 33.6339 58.8293 34.2958 59.7673 34.4568C61.0495 34.6766 62.2807 33.9891 62.7854 32.834L63.9758 30.1149C63.3513 31.5409 61.335 31.5409 60.7105 30.1149Z" fill="white"/>
        <path d="M81.243 16.4018L77.9955 12.3564C77.6029 11.8683 77.0294 11.5361 76.4049 11.5054C75.1763 11.4415 74.1617 12.4203 74.1617 13.6367V34.5003H75.1788C76.7771 34.5003 78.0745 33.1995 78.0745 31.5972V18.5843V17.5212C78.0745 15.8371 80.1902 15.0883 81.243 16.4018Z" fill="white"/>
        <path d="M90.8248 28.3413L90.083 27.4187L81.243 16.4043C80.1877 15.0907 78.072 15.8395 78.072 17.5236V18.5867L90.2054 33.7054C90.6081 34.2089 91.2199 34.5027 91.8648 34.5027C93.0399 34.5027 93.9933 33.547 93.9933 32.3689V27.2245C93.9958 28.9061 91.8801 29.6549 90.8248 28.3413Z" fill="white"/>
        <path d="M90.0831 27.4162L90.8248 28.3388C91.8801 29.6524 93.9958 28.9061 93.9958 27.2195V11.5002H92.9788C91.3805 11.5002 90.0831 12.801 90.0831 14.4034V27.4162Z" fill="white"/>
        <path d="M128.622 11.5002C129.606 11.5002 130.404 12.3001 130.404 13.2866V15.009H138.015V14.4034C138.015 12.801 136.718 11.5002 135.119 11.5002H128.622Z" fill="white"/>
        <path d="M128.622 11.5002H121.826H118.913V12.1059C118.913 13.7082 120.21 15.009 121.808 15.009H126.524V34.5002H127.508C129.106 34.5002 130.404 33.1995 130.404 31.5971V15.009V13.2866C130.404 12.3001 129.606 11.5002 128.622 11.5002Z" fill="white"/>
        <path d="M1440.11 -177.609H-25.8243V488.911H1440.11V-177.609Z" stroke="#FF0B0B" stroke-width="5" stroke-miterlimit="10"/>
    </g>
    <defs>
        <clipPath id="clip0_3330_303">
            <rect width="174" height="46" fill="white"/>
        </clipPath>
    </defs>
</svg>